<?xml version="1.0" standalone="no"?>
<!DOCTYPE svg PUBLIC "-//W3C//DTD SVG 20010904//EN"
 "http://www.w3.org/TR/2001/REC-SVG-20010904/DTD/svg10.dtd">
<svg version="1.0" xmlns="http://www.w3.org/2000/svg"
 width="180.000000pt" height="180.000000pt" viewBox="0 0 180.000000 180.000000"
 preserveAspectRatio="xMidYMid meet">
<metadata>
Created by potrace 1.11, written by Peter Selinger 2001-2013
</metadata>
<g transform="translate(0.000000,180.000000) scale(0.100000,-0.100000)"
fill="#000000" stroke="none">
<path d="M876 1791 c-3 -5 0 -12 6 -14 10 -4 9 -6 -1 -6 -10 -1 -11 -4 -2 -15
9 -11 9 -16 0 -22 -8 -4 -9 -3 -5 4 5 8 -3 12 -24 12 -19 0 -30 -5 -29 -12 4
-29 -2 -38 -26 -38 -21 0 -25 -5 -25 -30 0 -27 -2 -29 -23 -21 -23 9 -24 8
-27 -52 -1 -34 -2 -79 -2 -99 0 -24 -4 -35 -11 -31 -6 4 -7 1 -1 -8 5 -8 9
-33 9 -55 1 -31 -2 -41 -12 -37 -8 3 -13 2 -12 -3 4 -21 -2 -35 -11 -29 -17
11 -8 -65 10 -78 13 -10 13 -10 3 4 -10 13 -10 19 3 35 8 10 13 13 9 7 -4 -9
1 -13 16 -13 18 0 19 2 9 15 -7 9 -10 18 -6 22 3 3 6 1 6 -5 0 -7 5 -12 11
-12 5 0 7 5 3 12 -4 6 -3 8 3 5 6 -4 16 0 23 7 6 8 20 13 31 11 12 -2 19 2 19
11 0 8 -10 14 -22 15 -14 1 -4 6 22 13 34 9 46 17 48 34 3 20 9 22 53 21 48
-2 61 -11 38 -25 -6 -3 -15 0 -20 7 -6 10 -8 7 -6 -9 2 -25 2 -26 29 -11 15 8
19 8 14 0 -4 -6 -2 -11 4 -11 7 0 9 -8 5 -19 -7 -23 12 -38 28 -22 9 9 8 11
-5 6 -23 -9 -23 8 -1 26 11 10 14 10 9 2 -4 -7 -2 -13 4 -13 6 0 10 -8 8 -17
-2 -14 4 -18 30 -18 17 0 32 -1 32 -2 0 -1 -9 -11 -21 -21 l-20 -19 23 -1 c13
0 30 -1 38 -3 12 -3 15 8 17 53 2 52 1 56 -17 53 -11 -2 -20 1 -20 6 0 5 8 9
17 7 10 -2 19 5 21 16 2 11 0 16 -7 12 -6 -4 -11 -2 -11 3 0 6 5 11 10 11 19
0 10 16 -10 17 -11 1 -18 -2 -15 -7 3 -5 2 -11 -3 -14 -4 -2 -8 15 -8 40 -1
45 4 52 23 33 8 -8 13 -7 18 1 4 6 2 17 -4 23 -9 9 -11 7 -6 -8 6 -19 6 -19
-8 -3 -8 10 -17 15 -20 11 -4 -3 -7 19 -7 50 0 54 -1 57 -25 57 -16 0 -25 6
-25 15 0 8 5 15 10 15 7 0 6 5 -2 13 -6 8 -23 11 -36 9 -16 -3 -23 0 -22 9 5
31 -1 39 -28 39 -23 0 -28 4 -28 21 1 12 -5 24 -13 27 -10 3 -11 0 -5 -9 6
-12 5 -12 -8 -1 -10 8 -19 9 -22 3z m-163 -456 c-3 -9 -8 -14 -10 -11 -3 3 -2
9 2 15 9 16 15 13 8 -4z"/>
<path d="M950 1779 c0 -5 5 -7 10 -4 6 3 10 8 10 11 0 2 -4 4 -10 4 -5 0 -10
-5 -10 -11z"/>
<path d="M617 1526 c4 -6 8 -15 9 -21 4 -19 44 -89 44 -77 0 7 -7 26 -15 42
-9 17 -13 30 -9 30 4 0 1 7 -6 15 -7 8 -8 15 -3 15 6 0 15 -10 21 -22 l11 -23
0 23 c1 12 -2 23 -6 23 -37 7 -52 5 -46 -5z"/>
<path d="M1186 1532 c-11 -10 -6 -22 9 -22 8 0 15 6 16 13 0 6 5 3 10 -8 8
-19 9 -19 6 -1 -2 18 -29 30 -41 18z"/>
<path d="M1091 1494 c0 -11 3 -14 6 -6 3 7 2 16 -1 19 -3 4 -6 -2 -5 -13z"/>
<path d="M573 1493 c-7 -3 -13 -15 -13 -28 0 -17 -5 -22 -22 -21 -18 1 -24 -5
-27 -29 -3 -26 -4 -28 -11 -10 -7 17 -9 17 -9 3 -1 -16 -19 -24 -45 -19 -5 1
-4 -5 3 -13 16 -20 4 -39 -20 -33 -15 4 -19 0 -19 -23 0 -16 -6 -31 -12 -33
-10 -4 -10 -7 0 -14 10 -7 7 -14 -10 -29 -14 -12 -18 -13 -10 -3 7 9 10 24 6
33 -13 34 -20 13 -23 -71 -6 -154 -4 -142 -24 -131 -10 5 -21 7 -25 4 -3 -3 1
-6 9 -6 11 0 12 -2 1 -9 -11 -7 -10 -9 3 -14 9 -4 13 -3 10 3 -3 6 -4 10 -1
10 3 0 10 -9 16 -21 10 -18 10 -19 -8 -10 -27 14 -32 6 -32 -51 0 -37 4 -48
16 -48 8 0 12 -5 9 -11 -4 -6 1 -6 12 2 14 8 18 19 15 38 l-5 25 29 -19 c28
-18 28 -18 14 0 -14 17 -13 18 6 13 22 -6 26 5 11 28 -9 15 2 24 30 24 14 0
21 4 18 10 -3 6 -2 10 4 10 5 0 12 -6 14 -12 4 -10 6 -10 6 0 1 7 -6 15 -14
18 -18 7 -10 24 11 24 10 0 12 -5 8 -12 -5 -9 -3 -9 9 1 9 7 15 16 13 20 -7
10 22 43 32 37 6 -3 12 1 16 9 3 8 12 12 20 9 8 -3 17 0 22 7 4 8 3 10 -4 5
-7 -4 -20 -3 -29 3 -16 9 -14 11 12 16 34 7 31 -11 35 198 2 67 4 76 16 66 11
-9 10 -3 -3 19 -18 31 -37 42 -60 35z"/>
<path d="M1110 1485 c0 -9 6 -12 15 -9 8 4 15 7 15 9 0 2 -7 5 -15 9 -9 3 -15
0 -15 -9z"/>
<path d="M1183 1343 c2 -153 2 -154 24 -150 12 2 22 1 21 -2 -4 -42 4 -60 30
-63 27 -3 37 -26 17 -40 -5 -4 7 -8 27 -8 34 0 36 -2 32 -25 -4 -22 -1 -25 27
-25 26 0 31 -3 26 -20 -5 -21 7 -34 33 -35 8 0 17 -11 20 -24 4 -18 13 -25 32
-25 15 -1 25 1 23 4 -2 3 -5 49 -6 102 -2 61 -7 96 -13 95 -6 -1 -10 4 -8 11
1 6 -2 12 -8 12 -14 0 -12 -16 3 -32 15 -15 16 -33 3 -45 -6 -5 -6 -2 -1 6 6
10 4 13 -6 9 -11 -4 -15 2 -15 21 -3 156 -9 221 -21 225 -7 3 -13 0 -13 -6 0
-7 -5 -6 -15 2 -8 7 -13 16 -10 20 3 5 -5 6 -17 3 -22 -4 -22 -3 2 11 14 8 23
16 20 16 -30 7 -39 7 -34 -1 3 -5 0 -9 -5 -9 -6 0 -11 9 -11 19 0 10 -7 22
-16 25 -14 5 -15 4 -5 -8 10 -12 9 -14 -6 -12 -10 2 -17 7 -16 12 3 20 -18 43
-36 39 -15 -3 -19 2 -16 21 1 13 -3 25 -9 25 -60 7 -55 22 -53 -148z m242 -53
c2 -19 1 -19 -15 -2 -11 11 -13 19 -6 24 13 9 19 3 21 -22z m-195 -64 c0 -2
-7 -9 -15 -16 -13 -11 -14 -10 -9 4 5 14 24 23 24 12z"/>
<path d="M675 1481 c-3 -5 -2 -12 3 -15 5 -3 9 1 9 9 0 17 -3 19 -12 6z"/>
<path d="M1257 1476 c-3 -8 -2 -18 3 -21 13 -8 20 9 11 24 -6 10 -10 9 -14 -3z"/>
<path d="M685 1441 c-6 -11 13 -26 22 -17 4 3 1 6 -6 6 -7 0 -9 5 -6 10 3 6 4
10 1 10 -3 0 -7 -4 -11 -9z"/>
<path d="M1300 1432 c0 -5 7 -9 15 -9 8 0 15 4 15 9 0 4 -7 8 -15 8 -8 0 -15
-4 -15 -8z"/>
<path d="M672 1380 c0 -16 4 -30 9 -30 6 0 8 4 4 9 -3 6 3 14 12 20 17 10 17
10 0 11 -10 0 -15 5 -12 10 3 6 2 10 -3 10 -5 0 -9 -13 -10 -30z"/>
<path d="M890 1368 c-12 -22 -12 -22 6 -6 10 10 15 20 12 24 -4 3 -12 -5 -18
-18z"/>
<path d="M426 1365 c4 -8 11 -15 16 -15 6 0 5 6 -2 15 -7 8 -14 15 -16 15 -2
0 -1 -7 2 -15z"/>
<path d="M898 1346 c-10 -7 -14 -17 -10 -22 4 -4 -1 -2 -10 5 -14 10 -21 11
-31 2 -8 -6 -17 -7 -21 -3 -4 4 -7 3 -6 -3 10 -46 -33 -66 -49 -23 -5 14 -10
18 -15 10 -4 -7 -1 -19 7 -27 23 -22 14 -50 -15 -53 -20 -2 -27 -10 -32 -33
-5 -25 -9 -29 -26 -24 -18 6 -20 2 -21 -54 -2 -92 -3 -95 -14 -103 -7 -5 -7
-8 0 -8 12 0 14 -69 2 -87 -4 -6 -1 -14 5 -16 10 -4 9 -6 -1 -6 -11 -1 -11 -4
-1 -16 9 -10 9 -15 1 -15 -6 0 -11 5 -11 10 0 6 -5 10 -11 10 -5 0 -7 -5 -3
-12 5 -7 3 -8 -6 -3 -10 6 -9 11 4 21 11 8 13 14 7 19 -17 10 -13 28 4 21 8
-3 15 -1 15 4 0 6 -7 10 -15 10 -8 0 -15 5 -15 11 0 6 7 8 16 5 13 -5 14 -4 6
7 -7 8 -10 17 -7 21 3 3 -1 2 -7 -4 -7 -5 -13 -27 -14 -47 -1 -21 -3 -42 -4
-48 -7 -32 1 -46 23 -41 22 6 22 6 1 -5 -19 -10 -22 -20 -23 -93 -1 -44 -3
-95 -5 -112 -3 -27 -1 -30 25 -30 18 0 29 5 29 13 0 8 5 11 10 8 6 -3 10 -1
10 4 0 6 -4 11 -10 11 -5 0 -10 5 -10 10 0 13 32 9 42 -5 8 -10 12 15 8 48 -1
14 3 17 18 13 24 -8 59 4 42 14 -6 3 -8 14 -4 23 5 15 28 21 70 20 13 0 13 22
-1 34 -4 4 -5 3 -2 -3 4 -7 1 -14 -7 -17 -10 -4 -12 0 -9 14 6 22 23 25 42 7
10 -9 12 -9 7 -1 -3 6 -2 14 4 18 6 4 7 11 4 17 -4 7 -2 8 5 4 6 -4 9 -11 6
-15 -2 -5 3 -8 13 -8 65 0 71 -2 66 -28 -4 -22 -1 -25 27 -25 28 0 31 -3 27
-25 -5 -24 9 -32 45 -26 4 0 7 -10 7 -24 0 -20 5 -25 24 -25 19 0 25 -6 28
-27 2 -19 9 -27 26 -28 12 -1 22 3 22 8 0 5 6 4 14 -2 11 -9 16 -9 22 0 4 7 3
9 -4 5 -19 -11 -24 12 -29 127 -3 62 -6 137 -7 167 -1 30 1 65 5 77 5 13 4 25
-2 29 -6 3 -8 12 -5 20 7 17 -3 44 -16 44 -5 0 -7 -4 -4 -9 3 -5 0 -11 -7 -14
-8 -3 -13 4 -13 19 0 13 4 24 8 24 4 0 8 5 8 11 0 5 -4 7 -10 4 -6 -4 -10 7
-10 24 0 29 -8 36 -37 32 -6 -1 -13 11 -15 26 -2 23 -7 27 -25 25 -15 -2 -23
2 -23 12 0 8 -6 17 -12 19 -10 4 -10 6 0 6 6 1 12 5 12 10 0 6 -8 8 -18 6 -19
-3 -44 7 -43 19 3 24 -1 37 -11 35 -29 -3 -49 2 -43 11 8 13 4 12 -17 -4z
m-28 -51 c0 -5 -5 -3 -10 5 -5 8 -10 20 -10 25 0 6 5 3 10 -5 5 -8 10 -19 10
-25z m-25 5 c3 -5 1 -10 -4 -10 -6 0 -11 5 -11 10 0 6 2 10 4 10 3 0 8 -4 11
-10z m-35 -40 c0 -5 -4 -10 -10 -10 -5 0 -10 5 -10 10 0 6 5 10 10 10 6 0 10
-4 10 -10z m356 -206 c-4 -9 -2 -22 4 -29 8 -9 8 -15 0 -20 -6 -3 -8 -10 -5
-15 4 -7 -3 -7 -34 -1 -2 1 1 7 8 14 8 10 7 17 -1 25 -9 9 -7 15 8 27 25 19
27 18 20 -1z m-9 -106 c-3 -8 -6 -5 -6 6 -1 11 2 17 5 13 3 -3 4 -12 1 -19z
m-233 -91 c4 4 4 -1 0 -11 -7 -17 -8 -17 -19 3 -6 12 -14 18 -19 14 -4 -4 -4
1 0 11 7 17 8 17 19 -3 6 -12 14 -18 19 -14z"/>
<path d="M1148 1028 c9 -9 9 -15 -1 -27 -11 -14 -10 -14 6 -2 13 10 15 17 6
27 -6 8 -14 14 -17 14 -3 0 -1 -5 6 -12z"/>
<path d="M374 1326 c1 -8 5 -18 8 -22 4 -3 5 1 4 10 -1 8 -5 18 -8 22 -4 3 -5
-1 -4 -10z"/>
<path d="M1106 1258 c3 -5 10 -6 15 -3 13 9 11 12 -6 12 -8 0 -12 -4 -9 -9z"/>
<path d="M535 1099 c-4 -6 -4 -13 -1 -16 3 -4 6 -1 6 6 0 7 5 9 12 5 7 -4 8
-3 4 4 -9 15 -13 15 -21 1z"/>
<path d="M580 1040 c0 -6 7 -10 15 -10 8 0 15 2 15 4 0 2 -7 6 -15 10 -8 3
-15 1 -15 -4z"/>
<path d="M1237 1027 c-4 -10 -2 -210 2 -226 1 -2 7 2 14 8 10 8 14 7 14 -4 0
-8 -4 -12 -8 -10 -3 3 -12 -1 -18 -9 -9 -10 -8 -15 3 -19 8 -3 16 -1 19 6 2 6
6 4 10 -5 4 -13 1 -16 -14 -13 -10 2 -19 1 -20 -3 0 -4 -2 -15 -4 -24 -2 -11
2 -15 11 -11 8 3 11 9 8 14 -3 5 0 9 5 9 12 0 14 -11 13 -48 -1 -14 3 -20 10
-16 7 4 8 3 4 -5 -11 -18 -18 -63 -8 -57 4 3 8 -22 7 -55 -1 -50 1 -59 14 -54
13 4 13 3 -1 -8 -21 -17 -10 -35 20 -32 18 1 22 -3 22 -27 0 -17 5 -28 13 -27
28 3 37 -2 37 -25 0 -20 4 -24 21 -21 15 3 23 -3 31 -26 7 -21 16 -29 27 -26
9 2 22 -2 29 -9 14 -15 16 -28 4 -20 -5 3 -9 -1 -9 -10 0 -8 7 -12 16 -9 25 7
45 -10 38 -35 -4 -17 -2 -21 16 -18 30 4 49 -31 30 -53 -25 -30 -59 -10 -53
30 1 13 -1 13 -14 2 -9 -8 -19 -11 -23 -7 -3 3 -1 6 6 6 7 0 9 5 6 10 -4 6
-10 8 -15 5 -5 -3 -11 -1 -15 5 -4 6 -11 7 -17 4 -6 -4 -8 -2 -4 4 3 5 1 12
-6 14 -7 3 -5 7 6 11 9 4 15 3 11 -2 -3 -5 0 -13 6 -16 7 -5 10 0 7 11 -2 13
-10 18 -26 16 -14 -2 -22 2 -23 12 -1 9 -2 22 -3 28 0 7 -8 13 -16 14 -43 3
-50 5 -50 15 0 5 6 7 13 3 9 -6 9 -5 0 8 -7 8 -10 17 -7 21 3 3 -2 4 -13 3
-10 -2 -26 1 -35 6 -12 5 -18 5 -18 -1 0 -6 -6 -8 -13 -5 -10 4 -12 -7 -7 -51
3 -30 2 -55 -3 -55 -4 0 -5 -5 -1 -11 9 -14 22 7 19 30 -1 9 0 10 2 3 3 -7 10
-9 16 -6 7 4 9 4 5 0 -4 -5 -2 -19 3 -33 7 -19 6 -24 -3 -20 -7 2 -12 13 -10
23 3 19 3 19 -11 0 -8 -12 -19 -16 -28 -12 -8 4 -5 1 5 -8 10 -8 23 -13 27
-10 5 3 9 0 9 -6 0 -6 3 -9 8 -7 4 3 7 -35 7 -85 0 -49 2 -94 6 -99 3 -6 77
-8 180 -7 165 3 174 4 174 23 0 12 -9 21 -25 25 -18 5 -25 13 -24 29 1 18 -4
21 -25 19 -22 -3 -26 1 -27 22 -1 37 14 54 34 38 13 -10 14 -10 8 0 -4 8 -1
12 9 12 11 0 15 -5 11 -15 -3 -8 -1 -15 4 -15 6 0 10 5 10 11 0 8 4 8 13 1 10
-9 12 -4 9 23 -3 22 -10 35 -18 35 -12 0 -12 -5 -4 -22 10 -21 10 -22 -3 -5
-9 10 -15 41 -16 70 -1 66 -6 101 -15 115 -4 7 -1 12 6 12 8 0 9 3 3 8 -14 10
-15 42 -2 42 13 0 -9 24 -24 26 -5 1 -15 2 -21 3 -9 1 -8 4 2 11 12 8 12 10 1
10 -11 0 -11 3 -1 15 7 8 8 15 3 15 -9 0 -15 75 -14 158 1 23 -13 30 -25 10
-4 -7 -3 -8 4 -4 18 11 14 -3 -5 -22 -16 -16 -16 -16 -10 0 3 10 1 20 -5 24
-7 4 -5 10 6 16 9 5 16 14 16 21 0 7 -4 6 -10 -3 -5 -8 -10 -13 -11 -10 -3 14
-10 67 -10 82 0 16 -17 35 -31 37 -5 1 -11 2 -15 2 -5 1 -17 2 -28 3 -23 1
-33 33 -10 33 18 0 20 -13 3 -20 -10 -4 -10 -6 -1 -6 7 -1 17 8 23 18 8 16 7
19 -8 16 -9 -1 -23 2 -29 8 -7 5 -13 6 -13 3 0 -4 -9 -2 -20 4 -11 6 -20 20
-20 30 0 15 -7 20 -26 20 -21 0 -24 4 -19 20 4 12 2 20 -5 20 -6 0 -9 4 -6 8
3 4 -7 8 -22 8 -20 -1 -27 4 -27 18 0 22 -41 41 -48 23z m290 -234 c2 -6 -3
-13 -12 -17 -9 -3 -13 -2 -10 4 3 6 1 10 -4 10 -6 0 -11 4 -11 9 0 12 33 7 37
-6z m47 -167 c-3 -9 -10 -13 -15 -10 -5 3 -3 11 4 19 15 16 19 13 11 -9z m56
-188 c0 -4 -4 -8 -10 -8 -5 0 -10 -5 -10 -11 0 -5 5 -7 12 -3 7 5 8 3 3 -6 -6
-10 -11 -9 -21 5 -7 10 -11 21 -9 25 6 10 35 8 35 -2z m-209 -45 c13 -16 12
-17 -3 -4 -17 13 -22 21 -14 21 2 0 10 -8 17 -17z m-58 -56 c-2 -4 -3 -11 -3
-17 0 -5 -5 -10 -11 -10 -5 0 -7 5 -4 10 3 6 1 10 -4 10 -6 0 -11 4 -11 9 0 5
8 8 18 7 9 -2 16 -6 15 -9z m-33 -37 c0 -5 -7 -7 -15 -4 -8 4 -15 8 -15 10 0
2 7 4 15 4 8 0 15 -4 15 -10z m96 -18 c0 -10 -8 -19 -17 -19 -16 -2 -17 0 -1
18 9 10 17 19 17 19 0 0 1 -8 1 -18z m164 -43 c0 -4 -6 -9 -13 -12 -8 -3 -14
0 -14 7 0 7 6 13 14 13 7 0 13 -4 13 -8z m42 -47 c3 8 6 9 11 1 12 -18 -21
-23 -35 -5 -11 15 -11 16 4 4 13 -10 17 -10 20 0z m-52 -68 c0 -8 -19 -13 -24
-6 -3 5 1 9 9 9 8 0 15 -2 15 -3z m110 -109 c0 -2 -9 -3 -19 -2 -11 0 -18 5
-15 9 4 6 34 0 34 -7z"/>
<path d="M515 1011 c6 -21 -20 -42 -43 -34 -7 3 -12 1 -11 -4 6 -35 -2 -50
-26 -48 -21 3 -25 -1 -25 -21 0 -13 -4 -25 -10 -25 -5 -1 -16 -2 -22 -3 -7 0
-14 -13 -16 -28 -3 -22 -7 -26 -28 -22 -20 4 -24 0 -24 -20 0 -14 -4 -28 -10
-31 -5 -3 -10 -1 -10 5 0 7 -7 5 -16 -4 -11 -11 -16 -37 -17 -81 -1 -36 -6
-65 -10 -65 -5 0 -5 6 -1 13 4 6 4 9 -1 5 -4 -4 -15 -2 -24 5 -14 10 -14 10
-3 -5 15 -19 7 -42 -10 -32 -7 4 -8 2 -4 -5 4 -6 12 -9 17 -6 5 4 9 1 9 -5 0
-6 4 -9 9 -6 5 3 11 0 14 -7 3 -7 -3 -13 -13 -13 -10 0 -16 4 -14 8 3 4 0 8
-5 8 -6 0 -11 -17 -12 -37 -1 -67 -5 -99 -13 -111 -4 -7 -2 -12 6 -12 9 -1 7
-5 -4 -14 -18 -13 -26 -32 -10 -22 4 2 9 -4 9 -15 2 -21 -12 -26 -23 -7 -5 7
-3 8 7 3 11 -7 11 -5 -1 11 -8 10 -16 21 -18 24 -2 2 -1 -7 1 -21 3 -14 1 -32
-3 -40 -5 -8 -4 -19 2 -26 6 -7 7 -13 2 -13 -5 0 -10 -24 -11 -53 -1 -38 2
-55 14 -64 25 -19 1 -16 -27 4 -25 16 -25 16 -7 -3 9 -12 17 -26 17 -32 0 -7
5 -12 11 -12 5 0 7 5 3 11 -5 8 -1 8 14 0 16 -9 21 -7 25 9 3 11 1 18 -4 14
-5 -3 -6 2 -3 11 4 9 14 15 23 14 33 -3 41 2 38 24 -2 17 3 22 23 22 20 0 25
5 25 25 0 20 6 26 28 28 21 3 27 8 27 29 0 22 4 25 28 21 26 -4 28 -2 24 24
-4 25 -1 28 22 28 24 0 31 11 24 38 -1 4 11 9 28 12 22 4 29 10 28 28 -1 12 2
22 7 22 5 0 4 11 -1 25 -5 14 -6 25 -2 25 5 0 7 17 6 38 -3 29 -1 33 7 19 6
-9 7 -22 4 -28 -4 -5 -1 -16 5 -24 9 -11 9 -15 1 -15 -6 0 -11 -5 -11 -11 0
-8 4 -8 14 1 8 6 12 19 9 27 -5 12 -3 14 8 8 11 -6 12 -5 2 6 -7 7 -13 17 -13
22 0 4 6 5 13 1 14 -8 -20 34 -43 54 -13 11 -11 12 12 8 29 -5 48 8 26 17 -10
4 -9 6 1 6 11 1 11 4 1 16 -7 8 -9 15 -4 15 5 0 9 33 8 73 0 39 3 82 8 95 4
13 5 21 0 19 -9 -6 -8 45 1 60 4 6 1 14 -5 16 -9 4 -9 6 -1 6 6 1 9 10 6 21
-4 14 -14 20 -35 20 -24 0 -28 -3 -23 -19z"/>
<path d="M601 1006 c-9 -10 -8 -15 3 -19 11 -4 13 -1 9 10 -5 12 -3 14 7 8 9
-5 11 -4 6 3 -9 15 -11 15 -25 -2z"/>
<path d="M596 943 c-6 -14 -5 -15 5 -6 7 7 10 15 7 18 -3 3 -9 -2 -12 -12z"/>
<path d="M1410 920 c0 -5 5 -10 11 -10 5 0 7 5 4 10 -3 6 -8 10 -11 10 -2 0
-4 -4 -4 -10z"/>
<path d="M879 768 c-6 -21 -5 -39 2 -44 5 -3 9 0 9 6 0 7 7 10 15 7 8 -4 17
-2 20 3 4 6 -1 10 -9 10 -9 0 -16 5 -16 10 0 8 -18 15 -21 8z"/>
<path d="M790 752 c0 -5 7 -9 15 -9 8 0 12 4 9 9 -3 4 -9 8 -15 8 -5 0 -9 -4
-9 -8z"/>
<path d="M895 720 c-3 -4 -20 -7 -39 -5 -27 3 -33 0 -31 -13 4 -25 -13 -41
-35 -35 -16 4 -20 0 -20 -21 0 -25 -8 -31 -37 -27 -8 1 -13 -10 -13 -28 0 -24
-3 -28 -20 -24 -19 5 -21 3 -36 -47 -4 -10 -7 -11 -12 -3 -5 8 -12 8 -26 -2
-10 -8 -15 -18 -12 -24 4 -6 -1 -25 -10 -42 -15 -30 -15 -31 1 -26 9 4 14 3
10 -3 -7 -11 -35 -14 -35 -4 0 3 5 15 11 26 7 12 7 18 1 14 -6 -3 -13 0 -16 6
-3 7 -3 2 0 -11 4 -14 2 -21 -3 -18 -6 4 -8 -4 -5 -18 2 -14 9 -28 14 -31 5
-3 4 -12 -3 -20 -6 -8 -9 -23 -6 -34 3 -11 2 -20 -1 -20 -4 0 -7 -52 -7 -115
0 -63 -4 -115 -9 -115 -5 0 -3 -6 3 -14 10 -11 8 -17 -6 -25 -17 -10 -17 -10
0 -11 10 0 16 -4 12 -10 -3 -5 -12 -7 -19 -4 -8 3 -17 1 -20 -5 -8 -13 723
-15 743 -2 8 5 15 23 16 40 1 23 -2 28 -10 21 -9 -7 -17 -5 -26 7 -13 17 -13
17 5 3 18 -14 19 -13 13 3 -4 10 -3 16 2 12 5 -3 12 -1 15 4 4 5 -5 8 -18 7
-27 -3 -39 13 -26 34 5 8 4 22 -1 32 -10 18 -1 24 26 18 6 -1 6 2 2 7 -5 4
-14 8 -19 8 -8 0 -13 46 -15 130 -5 168 -3 158 -24 139 -16 -14 -18 -13 -24
16 -4 20 -12 30 -20 26 -18 -6 -39 20 -31 39 4 11 -2 15 -25 15 -26 0 -30 3
-27 23 2 18 -2 23 -24 25 -22 3 -28 9 -28 28 0 19 -5 24 -25 24 -24 0 -30 9
-26 38 1 6 -8 12 -21 13 -13 0 -31 2 -40 4 -10 2 -20 0 -23 -5z m368 -687 c-9
-13 -16 -23 -17 -23 0 0 -1 10 -1 23 0 14 6 23 16 23 15 0 15 -3 2 -23z m-358
-13 c3 -5 1 -10 -4 -10 -6 0 -11 5 -11 10 0 6 2 10 4 10 3 0 8 -4 11 -10z"/>
<path d="M1250 705 c-7 -8 -9 -15 -4 -15 5 0 2 -5 -6 -10 -13 -8 -12 -10 3
-10 9 0 17 3 18 8 0 4 2 15 4 25 4 21 1 21 -15 2z"/>
<path d="M547 645 c3 -8 9 -12 14 -9 12 7 11 11 -5 17 -10 4 -13 1 -9 -8z"/>
<path d="M1230 640 c0 -6 7 -10 15 -10 8 0 15 2 15 4 0 2 -7 6 -15 10 -8 3
-15 1 -15 -4z"/>
<path d="M1195 591 c-3 -5 -2 -12 3 -15 5 -3 9 1 9 9 0 17 -3 19 -12 6z"/>
<path d="M1235 591 c-3 -5 -2 -12 3 -15 5 -3 9 1 9 9 0 17 -3 19 -12 6z"/>
<path d="M1160 560 c-9 -6 -10 -10 -3 -10 6 0 15 5 18 10 8 12 4 12 -15 0z"/>
<path d="M1195 500 c3 -5 8 -10 11 -10 2 0 4 5 4 10 0 6 -5 10 -11 10 -5 0 -7
-4 -4 -10z"/>
<path d="M470 385 c0 -7 30 -13 34 -7 3 4 -4 9 -15 9 -10 1 -19 0 -19 -2z"/>
<path d="M461 342 c-6 -11 -7 -22 -4 -26 3 -3 -8 -6 -24 -6 -27 0 -31 -3 -29
-23 2 -17 -3 -23 -17 -24 -24 -2 -28 -6 -30 -32 -1 -14 -8 -21 -22 -21 -20 1
-20 1 -1 15 11 8 16 18 11 22 -4 5 -10 2 -12 -5 -3 -6 -8 -10 -12 -8 -4 3 -8
-1 -9 -9 -1 -8 -3 -21 -4 -29 -1 -8 -7 -12 -14 -9 -15 6 -56 -56 -47 -70 3 -6
1 -7 -5 -3 -5 3 -12 0 -15 -6 -3 -7 -4 -3 -4 9 1 12 4 20 8 17 4 -2 9 2 12 10
4 10 0 12 -14 9 -12 -3 -18 -11 -15 -19 3 -7 -2 -20 -10 -28 -8 -9 -14 -18
-14 -21 1 -9 -16 -37 -23 -36 -23 3 -37 0 -37 -10 0 -5 4 -8 8 -5 5 3 9 -1 9
-8 0 -7 -6 -13 -13 -13 -7 0 -13 3 -12 6 0 3 0 13 -1 21 -1 13 -3 13 -10 1
-22 -35 -4 -39 181 -41 107 0 177 3 174 9 -3 5 1 14 9 21 14 12 14 15 0 30
-13 14 -13 23 -5 46 l12 29 12 -24 c11 -20 14 -21 19 -7 4 10 3 15 -3 11 -16
-10 -11 7 6 19 13 10 13 12 -6 13 -11 1 -18 -1 -16 -5 3 -4 -4 -8 -15 -8 -10
0 -19 4 -19 8 0 4 8 8 18 8 15 0 15 2 2 11 -12 9 -11 10 8 6 22 -5 22 -3 22
84 0 49 1 92 3 97 5 17 -42 12 -52 -6z m-151 -177 c0 -2 -9 -3 -19 -2 -11 0
-18 5 -15 9 4 6 34 0 34 -7z m170 -119 c0 -3 -4 -8 -10 -11 -5 -3 -10 -1 -10
4 0 6 5 11 10 11 6 0 10 -2 10 -4z"/>
<path d="M360 280 c0 -5 5 -10 11 -10 5 0 7 5 4 10 -3 6 -8 10 -11 10 -2 0 -4
-4 -4 -10z"/>
<path d="M1666 232 c-3 -5 1 -9 9 -9 8 0 12 4 9 9 -3 4 -7 8 -9 8 -2 0 -6 -4
-9 -8z"/>
<path d="M104 179 c-4 -8 -3 -9 5 -5 7 4 15 -2 20 -16 7 -15 10 -17 10 -7 1
23 -25 44 -35 28z"/>
<path d="M1295 180 c-3 -5 -2 -10 4 -10 5 0 13 5 16 10 3 6 2 10 -4 10 -5 0
-13 -4 -16 -10z"/>
<path d="M1254 138 c-10 -12 -14 -18 -7 -15 6 4 22 3 35 -2 18 -7 25 -6 25 4
0 7 -8 10 -19 7 -20 -5 -25 13 -5 21 7 3 7 6 1 6 -6 1 -19 -9 -30 -21z"/>
<path d="M126 122 c-3 -5 1 -9 9 -9 8 0 12 4 9 9 -3 4 -7 8 -9 8 -2 0 -6 -4
-9 -8z"/>
<path d="M1666 122 c-3 -5 1 -9 9 -9 8 0 12 4 9 9 -3 4 -7 8 -9 8 -2 0 -6 -4
-9 -8z"/>
<path d="M163 85 c0 -9 4 -14 9 -13 5 2 10 8 10 13 0 5 -5 11 -10 13 -5 1 -9
-4 -9 -13z"/>
<path d="M475 90 c-3 -5 -1 -10 4 -10 6 0 11 5 11 10 0 6 -2 10 -4 10 -3 0 -8
-4 -11 -10z"/>
<path d="M516 83 c-4 -9 -4 -14 0 -10 4 4 13 -1 21 -11 12 -15 13 -14 2 8 -16
33 -16 33 -23 13z"/>
<path d="M497 49 c4 -13 8 -18 11 -10 2 7 -1 18 -6 23 -8 8 -9 4 -5 -13z"/>
</g>
</svg>
