<svg xmlns="http://www.w3.org/2000/svg" id="Home-profile-module-2019" width="372.53" height="995.36" viewBox="0 0 372.53 995.36">
    <defs>
        <style>
            .cls-1{fill:#416ba9}.cls-2{fill:url(#linear-gradient)}.cls-3{fill:url(#linear-gradient-2)}.cls-4{opacity:.15}.cls-5{fill:#fff}
        </style>
        <linearGradient id="linear-gradient" x1=".5" x2=".5" y1="1" gradientUnits="objectBoundingBox">
            <stop offset=".26" stop-color="#9aa2a8"/>
            <stop offset=".4" stop-color="#9fa7ad"/>
            <stop offset=".57" stop-color="#afb5ba"/>
            <stop offset=".76" stop-color="#c8cdcf"/>
            <stop offset=".96" stop-color="#ebedee"/>
            <stop offset="1" stop-color="#f4f5f5"/>
        </linearGradient>
        <linearGradient id="linear-gradient-2" x1=".5" x2=".5" y1="1" gradientUnits="objectBoundingBox">
            <stop offset="0" stop-color="#7b868c"/>
            <stop offset=".33" stop-color="#7d888e"/>
            <stop offset=".48" stop-color="#858f94"/>
            <stop offset=".6" stop-color="#929ba0"/>
            <stop offset=".7" stop-color="#a4acb0"/>
            <stop offset=".79" stop-color="#bcc1c4"/>
            <stop offset=".87" stop-color="#d9dcdd"/>
            <stop offset=".92" stop-color="#f2f3f3"/>
        </linearGradient>
    </defs>
    <g id="Layer_1" data-name="Layer 1">
        <g id="PROFILE_MODULE" data-name="PROFILE MODULE">
            <path id="TOP" d="M372.53 144.62L186.67 0 0 144l186.67 143.71z" class="cls-1"/>
            <g id="LEFT_SIDE" data-name="LEFT SIDE">
                <path id="Path_6792" d="M186.67 954.83V287.71L0 144v748.34L133.06 994.4l1.11.87z" class="cls-2" data-name="Path 6792"/>
            </g>
            <g id="RIGHT_SIDE" data-name="RIGHT SIDE">
                <path id="Path_6793" d="M186.67 287.71v667.12l52.63 40.53 133.23-103.02V144.62z" class="cls-3" data-name="Path 6793"/>
            </g>
            <g id="Profile">
                <path id="Type_Shadow" d="M236.25 249.57l-120.67-92.9 2.64-26.37 9.18-1.56 11.17 8.34 2.6-8.57 10.18.86 11.52 8.89 4.81 3.68 6.8 5.24 4-17.52 11.05 8.07 5.14 7.19h5.96l-6.29-3.33.33-8.47h7.91v-4.85l8.33 6.23 4.35 3.76.36-9.99 10.62 8.48 4.63 15.07v-23.55l15.92 12.31 5.08-7.53 8.5.03v-5l67.09 51.26z" class="cls-4" data-name="Type Shadow"/>
                <g id="Profile-2" data-name="Profile">
                    <path id="P" d="M130.28 133.37v8.55A4.91 4.91 0 0 1 125 147h-4.2v9.7h-5.25v-28.4H125a4.92 4.92 0 0 1 5.28 5.07zm-5.2.9a1.5 1.5 0 0 0-1.55-1.55h-2.7v9.8h2.7a1.5 1.5 0 0 0 1.55-1.55z" class="cls-5"/>
                    <path id="R" d="M145.27 146.27h-1.55v10.4h-5.15v-28.4h9.56a5.22 5.22 0 0 1 5.25 5.25v7.55a5.34 5.34 0 0 1-2.91 4.65l4.46 10.95h-5.85zm-1.55-4.2h3a1.56 1.56 0 0 0 1.5-1.6v-6.3a1.56 1.56 0 0 0-1.5-1.6h-3z" class="cls-5"/>
                    <path id="O" d="M162.43 151.92v-18.85a5.24 5.24 0 0 1 5.25-5.25h6.75a5.23 5.23 0 0 1 5.3 5.25v18.85a5.22 5.22 0 0 1-5.3 5.2h-6.75a5.23 5.23 0 0 1-5.25-5.2zm10.55.4a1.5 1.5 0 0 0 1.5-1.6v-16.5a1.5 1.5 0 0 0-1.5-1.6h-3.8a1.53 1.53 0 0 0-1.5 1.6v16.5a1.53 1.53 0 0 0 1.5 1.6z" class="cls-5"/>
                    <path id="F" d="M194.67 133.12v7.3h6v4.5h-6v11.75h-5.25v-28.4h13.16v4.85z" class="cls-5"/>
                    <path id="I" d="M210.37 128.27h5.25v28.4h-5.25z" class="cls-5"/>
                    <path id="L" d="M239.07 151.82v4.85h-13.45v-28.4h5.25v23.55z" class="cls-5"/>
                    <path id="E" d="M260.62 151.87v4.8h-13.8v-28.4h13.55v4.8h-8.3v7.1h6.05v4.4h-6.05v7.3z" class="cls-5"/>
                </g>
            </g>
        </g>
    </g>
</svg>
