<svg xmlns="http://www.w3.org/2000/svg" id="Home-billing-module-2019" width="372.53" height="995.36" viewBox="0 0 372.53 995.36">
    <defs>
        <style>
            .cls-1{fill:#a8ad00}.cls-2{fill:url(#linear-gradient)}.cls-3{fill:url(#linear-gradient-2)}.cls-4{fill:#5b595b;opacity:.25}.cls-5{fill:#fff}
        </style>
        <linearGradient id="linear-gradient" x1=".5" x2=".5" y1="1" gradientUnits="objectBoundingBox">
            <stop offset=".26" stop-color="#9aa2a8"/>
            <stop offset=".4" stop-color="#9fa7ad"/>
            <stop offset=".57" stop-color="#afb5ba"/>
            <stop offset=".76" stop-color="#c8cdcf"/>
            <stop offset=".96" stop-color="#ebedee"/>
            <stop offset="1" stop-color="#f4f5f5"/>
        </linearGradient>
        <linearGradient id="linear-gradient-2" x1=".5" x2=".5" y1="1" gradientUnits="objectBoundingBox">
            <stop offset="0" stop-color="#7b868c"/>
            <stop offset=".33" stop-color="#7d888e"/>
            <stop offset=".48" stop-color="#858f94"/>
            <stop offset=".6" stop-color="#929ba0"/>
            <stop offset=".7" stop-color="#a4acb0"/>
            <stop offset=".79" stop-color="#bcc1c4"/>
            <stop offset=".87" stop-color="#d9dcdd"/>
            <stop offset=".92" stop-color="#f2f3f3"/>
        </linearGradient>
    </defs>
    <g id="Layer_1" data-name="Layer 1">
        <g id="BILLING_MODULE" data-name="BILLING MODULE">
            <path id="TOP" d="M372.53 144.62L186.67 0 0 144l186.67 143.71z" class="cls-1"/>
            <g id="Left_Side" data-name="Left Side">
                <path id="Path_6794" d="M186.67 954.83V287.71L0 144v748.34L133.06 994.4l1.11.87z" class="cls-2" data-name="Path 6794"/>
            </g>
            <g id="Right_Side" data-name="Right Side">
                <path id="Path_6795" d="M186.67 287.71v667.12l52.63 40.53 133.23-103.02V144.62z" class="cls-3" data-name="Path 6795"/>
            </g>
            <g id="Billing">
                <path id="Type_Shadow" d="M240.4 246.31l-123.39-94.88 3.18-.59-.12-27.61 8.67.22 12.43 9.64 5.15-9.86 9.81 8.26 5.69 4.24.16-13.17 15.58 13.23 5.47 3.42.24-16.65 15.58 13.12 5.69 3.53-.24-16.11 9.89 8.11 4.81 9.73-.74-17.91 7.85 6.45 5.15 15.92v-22.37l9.7 7.42 13.34-7.42 73.26 56.26z" class="cls-4" data-name="Type Shadow"/>
                <g id="Billing-2" data-name="Billing">
                    <path id="B" d="M132.31 141.28v5.15a4.92 4.92 0 0 1-5 5H117V123h9.65a4.93 4.93 0 0 1 5.05 5v4.75a4.42 4.42 0 0 1-2.55 4.2 4.39 4.39 0 0 1 3.16 4.33zm-10.15-13.9V135h3a1.48 1.48 0 0 0 1.45-1.55V129a1.48 1.48 0 0 0-1.55-1.6zm5 13.15a1.48 1.48 0 0 0-1.5-1.55h-3.5v8.1h3.45a1.48 1.48 0 0 0 1.55-1.6z" class="cls-5"/>
                    <path id="I" d="M141.26 123h5.25v28.4h-5.25z" class="cls-5"/>
                    <path id="L" d="M170 146.58v4.85h-13.49V123h5.25v23.55z" class="cls-5"/>
                    <path id="L-2" d="M191.16 146.58v4.85h-13.45V123H183v23.55z" class="cls-5" data-name="L"/>
                    <path id="I-2" d="M199 123h5.25v28.4H199z" class="cls-5" data-name="I"/>
                    <path id="N" d="M231.26 123v28.4h-5.15v-7.7l-6.75-10.85v18.55h-5.15V123h4l7.85 12.75V123z" class="cls-5"/>
                    <path id="G" d="M252.16 132v-3a1.53 1.53 0 0 0-1.5-1.6h-3a1.52 1.52 0 0 0-1.45 1.6v16.5a1.52 1.52 0 0 0 1.45 1.6h3a1.53 1.53 0 0 0 1.5-1.6v-3.95h-2.8v-4.15h7.95v9.3a5.25 5.25 0 0 1-5.25 5.25h-5.9a5.23 5.23 0 0 1-5.2-5.2v-18.97a5.24 5.24 0 0 1 5.2-5.25h5.9a5.25 5.25 0 0 1 5.25 5.25V132z" class="cls-5"/>
                </g>
            </g>
        </g>
    </g>
</svg>
