<svg xmlns="http://www.w3.org/2000/svg" xmlns:xlink="http://www.w3.org/1999/xlink" viewBox="0 0 372.53 995.36"><defs><linearGradient id="a" x1="93.34" y1="995.27" x2="93.34" y2="144" gradientUnits="userSpaceOnUse"><stop offset="0.26" stop-color="#9aa2a8"/><stop offset="0.4" stop-color="#9fa7ad"/><stop offset="0.57" stop-color="#afb5ba"/><stop offset="0.76" stop-color="#c8cdcf"/><stop offset="0.96" stop-color="#ebedee"/><stop offset="1" stop-color="#f4f5f5"/></linearGradient><linearGradient id="b" x1="279.6" y1="995.36" x2="279.6" y2="144.62" gradientUnits="userSpaceOnUse"><stop offset="0" stop-color="#7b868c"/><stop offset="0.33" stop-color="#7d888e"/><stop offset="0.48" stop-color="#858f94"/><stop offset="0.6" stop-color="#929ba0"/><stop offset="0.7" stop-color="#a4acb0"/><stop offset="0.79" stop-color="#bcc1c4"/><stop offset="0.87" stop-color="#d9dcdd"/><stop offset="0.92" stop-color="#f2f3f3"/></linearGradient></defs><title>BLOXModules_Single_Support</title><polygon points="372.53 144.62 186.67 0 0 144 186.67 287.71 372.53 144.62" fill="#583a6b"/><polygon points="186.67 954.83 186.67 954.83 186.67 287.71 0 144 0 892.34 133.06 994.4 134.17 995.27 186.67 954.83" fill="url(#a)"/><polygon points="186.67 287.71 186.67 954.83 239.3 995.36 372.53 892.34 372.53 144.62 186.67 287.71" fill="url(#b)"/><polygon points="234.08 251.32 108.83 154.65 118.14 154.65 117.8 142.25 108.45 137.52 108.45 129.97 120.43 127.75 130.57 135.64 135.82 138.48 142.03 143.25 147.23 146.14 147.43 126.37 157.07 134.18 157.73 127.81 169.73 127.14 180.23 135.66 181.87 127.71 192.73 127.14 202.9 135.34 208.02 139.24 214.9 143.94 216.59 143.94 216.9 125.81 229.73 135.94 234.92 128.44 241.4 126.81 256.07 138.67 261.23 154.65 261.23 149.81 261.23 130.81 266.72 126.29 331.69 176.08 234.08 251.32" fill="#472e57"/><path d="M119.87,158.18v-4h5.2v2.75a1.5,1.5,0,0,0,1.4,1.65h2.8a1.54,1.54,0,0,0,1.5-1.65v-3.8a1.4,1.4,0,0,0-.9-1.3l-6.85-2.5a4.32,4.32,0,0,1-3-4.15v-5.85a5.25,5.25,0,0,1,5.25-5.25h5.5a5.24,5.24,0,0,1,5.2,5.25v3.55h-5.2v-2.3a1.5,1.5,0,0,0-1.4-1.65h-2.6a1.54,1.54,0,0,0-1.5,1.65V144a1.35,1.35,0,0,0,.9,1.3l6.85,2.5a4.32,4.32,0,0,1,3.05,4.15v6.25a5.25,5.25,0,0,1-5.25,5.25h-5.7A5.24,5.24,0,0,1,119.87,158.18Z" transform="translate(-14.05 -8.29)" fill="#fff"/><path d="M144.62,158.18v-23.6h5.25v22.35a1.51,1.51,0,0,0,1.45,1.65h3.3a1.48,1.48,0,0,0,1.45-1.65V134.58h5.25v23.6a5.18,5.18,0,0,1-5.2,5.25h-6.3A5.21,5.21,0,0,1,144.62,158.18Z" transform="translate(-14.05 -8.29)" fill="#fff"/><path d="M185.82,139.68v8.55a4.91,4.91,0,0,1-5.25,5.05h-4.2V163h-5.25v-28.4h9.45A4.92,4.92,0,0,1,185.82,139.68Zm-5.2.9a1.5,1.5,0,0,0-1.55-1.55h-2.7v9.8h2.7a1.5,1.5,0,0,0,1.55-1.55Z" transform="translate(-14.05 -8.29)" fill="#fff"/><path d="M208.82,139.68v8.55a4.91,4.91,0,0,1-5.25,5.05h-4.2V163h-5.25v-28.4h9.45A4.92,4.92,0,0,1,208.82,139.68Zm-5.2.9a1.5,1.5,0,0,0-1.55-1.55h-2.7v9.8h2.7a1.5,1.5,0,0,0,1.55-1.55Z" transform="translate(-14.05 -8.29)" fill="#fff"/><path d="M216.82,158.23V139.38a5.25,5.25,0,0,1,5.25-5.25h6.75a5.23,5.23,0,0,1,5.3,5.25v18.85a5.22,5.22,0,0,1-5.3,5.2h-6.75A5.24,5.24,0,0,1,216.82,158.23Zm10.55.4a1.5,1.5,0,0,0,1.5-1.6v-16.5a1.5,1.5,0,0,0-1.5-1.6h-3.8a1.53,1.53,0,0,0-1.5,1.6V157a1.53,1.53,0,0,0,1.5,1.6Z" transform="translate(-14.05 -8.29)" fill="#fff"/><path d="M250.52,152.58H249V163h-5.15v-28.4h9.55a5.22,5.22,0,0,1,5.25,5.25v7.55a5.35,5.35,0,0,1-2.9,4.65L260.17,163h-5.85Zm-1.55-4.2h2.95a1.56,1.56,0,0,0,1.5-1.6v-6.3a1.56,1.56,0,0,0-1.5-1.6H249Z" transform="translate(-14.05 -8.29)" fill="#fff"/><path d="M280.77,139.43h-5.5V163h-5.2V139.43h-5.5v-4.85h16.2Z" transform="translate(-14.05 -8.29)" fill="#fff"/></svg>