<svg xmlns="http://www.w3.org/2000/svg" xmlns:xlink="http://www.w3.org/1999/xlink" viewBox="0 0 372.53 995.36"><defs><linearGradient id="a" x1="93.34" y1="995.27" x2="93.34" y2="144" gradientUnits="userSpaceOnUse"><stop offset="0.26" stop-color="#9aa2a8"/><stop offset="0.4" stop-color="#9fa7ad"/><stop offset="0.57" stop-color="#afb5ba"/><stop offset="0.76" stop-color="#c8cdcf"/><stop offset="0.96" stop-color="#ebedee"/><stop offset="1" stop-color="#f4f5f5"/></linearGradient><linearGradient id="b" x1="279.6" y1="995.36" x2="279.6" y2="144.62" gradientUnits="userSpaceOnUse"><stop offset="0" stop-color="#7b868c"/><stop offset="0.33" stop-color="#7d888e"/><stop offset="0.48" stop-color="#858f94"/><stop offset="0.6" stop-color="#929ba0"/><stop offset="0.7" stop-color="#a4acb0"/><stop offset="0.79" stop-color="#bcc1c4"/><stop offset="0.87" stop-color="#d9dcdd"/><stop offset="0.92" stop-color="#f2f3f3"/></linearGradient></defs><title>BLOXModules_Single_Profile</title><polygon points="372.53 144.62 186.67 0 0 144 186.67 287.71 372.53 144.62" fill="#416ba9"/><polygon points="186.67 954.83 186.67 954.83 186.67 287.71 0 144 0 892.34 133.06 994.4 134.17 995.27 186.67 954.83" fill="url(#a)"/><polygon points="186.67 287.71 186.67 954.83 239.3 995.36 372.53 892.34 372.53 144.62 186.67 287.71" fill="url(#b)"/><polygon points="236.25 249.57 115.58 156.67 118.22 130.3 127.4 128.74 138.57 137.08 141.17 128.51 151.35 129.37 162.87 138.26 167.68 141.94 174.48 147.18 178.48 129.66 189.53 137.73 194.67 144.92 200.63 144.92 194.34 141.59 194.67 133.12 200.6 133.12 202.58 133.12 202.58 128.27 210.91 134.5 215.26 138.26 215.62 128.27 226.24 136.75 230.87 151.82 230.87 128.27 246.79 140.58 251.87 133.05 260.37 133.08 260.37 128.08 327.46 179.34 236.25 249.57" fill="#34578a"/><path d="M144.5,140.66v8.55a4.91,4.91,0,0,1-5.25,5h-4.2V164H129.8v-28.4h9.45A4.92,4.92,0,0,1,144.5,140.66Zm-5.2.9a1.5,1.5,0,0,0-1.55-1.55h-2.7v9.8h2.7a1.5,1.5,0,0,0,1.55-1.55Z" transform="translate(-14.22 -7.29)" fill="#fff"/><path d="M159.5,153.56H158V164H152.8v-28.4h9.55a5.22,5.22,0,0,1,5.25,5.25v7.55a5.35,5.35,0,0,1-2.9,4.65l4.45,11H163.3Zm-1.55-4.2h3a1.56,1.56,0,0,0,1.5-1.6v-6.3a1.56,1.56,0,0,0-1.5-1.6h-3Z" transform="translate(-14.22 -7.29)" fill="#fff"/><path d="M176.65,159.21V140.36a5.25,5.25,0,0,1,5.25-5.25h6.75a5.23,5.23,0,0,1,5.3,5.25v18.85a5.22,5.22,0,0,1-5.3,5.2H181.9A5.24,5.24,0,0,1,176.65,159.21Zm10.55.4a1.5,1.5,0,0,0,1.5-1.6v-16.5a1.5,1.5,0,0,0-1.5-1.6h-3.8a1.53,1.53,0,0,0-1.5,1.6V158a1.53,1.53,0,0,0,1.5,1.6Z" transform="translate(-14.22 -7.29)" fill="#fff"/><path d="M208.9,140.41v7.3h5.95v4.5H208.9V164h-5.25v-28.4H216.8v4.85Z" transform="translate(-14.22 -7.29)" fill="#fff"/><path d="M224.6,135.56h5.25V164H224.6Z" transform="translate(-14.22 -7.29)" fill="#fff"/><path d="M253.3,159.11V164H239.85v-28.4h5.25v23.55Z" transform="translate(-14.22 -7.29)" fill="#fff"/><path d="M274.85,159.16V164h-13.8v-28.4H274.6v4.8h-8.3v7.1h6.05v4.4H266.3v7.3Z" transform="translate(-14.22 -7.29)" fill="#fff"/></svg>