<svg id="Layer_1" data-name="Layer 1" xmlns="http://www.w3.org/2000/svg" viewBox="0 0 372.53 287.71"><title>BLOXModules_Single_Storage_TopOnly</title><g id="SUPPORT_MODULE" data-name="SUPPORT MODULE"><polygon id="TOP" points="372.53 144.62 186.67 0 0 144 186.67 287.71 372.53 144.62" fill="#fcaf17"/><g id="Support"><polygon id="Type_Shadow" data-name="Type Shadow" points="234.08 251.32 108.83 154.65 118.14 154.65 117.8 142.25 108.45 137.52 108.45 129.97 119.44 126.94 133.43 137.66 137.94 126.94 143.95 126.37 151.47 132.03 165.95 126.71 178.95 136.71 182.09 127.7 189.95 126.71 204.93 138.36 212.77 126.3 227.59 137.6 234.92 128.44 242.05 127.12 252.65 135.2 257.97 128.52 266.11 126.41 331.11 176.48 234.08 251.32" fill="#d08f11"/><g id="Support-_Outlined" data-name="Support- Outlined"><path d="M119.42,158.18v-4h5.2v2.75a1.5,1.5,0,0,0,1.4,1.65h2.8a1.54,1.54,0,0,0,1.5-1.65v-3.8a1.4,1.4,0,0,0-.9-1.3l-6.85-2.5a4.32,4.32,0,0,1-3-4.15v-5.85a5.25,5.25,0,0,1,5.25-5.25h5.5a5.24,5.24,0,0,1,5.2,5.25v3.55h-5.2v-2.3a1.5,1.5,0,0,0-1.4-1.65h-2.6a1.54,1.54,0,0,0-1.5,1.65V144a1.35,1.35,0,0,0,.9,1.3l6.85,2.5a4.32,4.32,0,0,1,3,4.15v6.25a5.26,5.26,0,0,1-5.25,5.26h-5.7A5.25,5.25,0,0,1,119.42,158.18Z" transform="translate(-14.05 -8.29)" fill="#fff"/><path d="M158.17,139.43h-5.5V163h-5.2V139.43H142v-4.85h16.2Z" transform="translate(-14.05 -8.29)" fill="#fff"/><path d="M165.47,158.23V139.38a5.25,5.25,0,0,1,5.25-5.25h6.75a5.23,5.23,0,0,1,5.3,5.25v18.85a5.23,5.23,0,0,1-5.3,5.21h-6.75A5.25,5.25,0,0,1,165.47,158.23Zm10.55.4a1.5,1.5,0,0,0,1.5-1.6v-16.5a1.5,1.5,0,0,0-1.5-1.6h-3.8a1.53,1.53,0,0,0-1.5,1.6V157a1.53,1.53,0,0,0,1.5,1.6Z" transform="translate(-14.05 -8.29)" fill="#fff"/><path d="M199.17,152.58h-1.55V163h-5.15v-28.4H202a5.22,5.22,0,0,1,5.25,5.25v7.55a5.35,5.35,0,0,1-2.9,4.65L208.82,163H203Zm-1.55-4.2h2.95a1.56,1.56,0,0,0,1.5-1.6v-6.3a1.56,1.56,0,0,0-1.5-1.6h-2.95Z" transform="translate(-14.05 -8.29)" fill="#fff"/><path d="M227.27,157.43H221l-1.1,5.55h-5.3l7.05-28.5h5.15l7,28.5h-5.45Zm-.9-4.3-2.25-11.25-2.25,11.25Z" transform="translate(-14.05 -8.29)" fill="#fff"/><path d="M252.67,143.58v-3.05a1.53,1.53,0,0,0-1.5-1.6h-3a1.52,1.52,0,0,0-1.45,1.6V157a1.52,1.52,0,0,0,1.45,1.6h3a1.53,1.53,0,0,0,1.5-1.6v-3.95h-2.8v-4.15h7.95v9.3a5.25,5.25,0,0,1-5.25,5.25h-5.9a5.23,5.23,0,0,1-5.2-5.2V139.33a5.24,5.24,0,0,1,5.2-5.25h5.9a5.25,5.25,0,0,1,5.25,5.25v4.25Z" transform="translate(-14.05 -8.29)" fill="#fff"/><path d="M280.52,158.18V163h-13.8v-28.4h13.55v4.8H272v7.1h6v4.4h-6v7.3Z" transform="translate(-14.05 -8.29)" fill="#fff"/></g></g></g></svg>