<svg id="Layer_1" data-name="Layer 1" xmlns="http://www.w3.org/2000/svg" viewBox="0 0 372.53 287.71"><title>BLOXModules_Single_Billing_TopOnly</title><g id="BILLING_MODULE" data-name="BILLING MODULE"><polygon id="TOP" points="372.53 144.62 186.67 0 0 144 186.67 287.71 372.53 144.62" fill="#a8ad00"/><g id="Billing"><polygon id="Type_Shadow" data-name="Type Shadow" points="240.4 246.31 117.01 151.43 120.19 150.84 120.07 123.23 128.74 123.45 141.17 133.09 146.32 123.23 156.13 131.49 161.82 135.73 161.98 122.56 177.56 135.79 183.03 139.21 183.27 122.56 198.85 135.68 204.54 139.21 204.3 123.1 214.19 131.21 219 140.94 218.26 123.03 226.11 129.48 231.26 145.4 231.26 123.03 240.96 130.45 254.3 123.03 327.56 179.29 240.4 246.31" fill="#8a8d00"/><g id="Billing-2" data-name="Billing"><path id="B" d="M146.07,148.57v5.15a4.92,4.92,0,0,1-5,5h-10.3v-28.4h9.65a4.93,4.93,0,0,1,5.05,5v4.75a4.42,4.42,0,0,1-2.55,4.2A4.39,4.39,0,0,1,146.07,148.57Zm-10.15-13.9v7.65h3a1.48,1.48,0,0,0,1.45-1.55v-4.5a1.48,1.48,0,0,0-1.55-1.6Zm5,13.15a1.48,1.48,0,0,0-1.5-1.55h-3.5v8.1h3.45a1.48,1.48,0,0,0,1.55-1.6Z" transform="translate(-13.76 -7.29)" fill="#fff"/><path id="I" d="M155,130.32h5.25v28.4H155Z" transform="translate(-13.76 -7.29)" fill="#fff"/><path id="L" d="M183.72,153.87v4.85H170.27v-28.4h5.25v23.55Z" transform="translate(-13.76 -7.29)" fill="#fff"/><path id="L-2" data-name="L" d="M204.92,153.87v4.85H191.47v-28.4h5.25v23.55Z" transform="translate(-13.76 -7.29)" fill="#fff"/><path id="I-2" data-name="I" d="M212.72,130.32H218v28.4h-5.25Z" transform="translate(-13.76 -7.29)" fill="#fff"/><path id="N" d="M245,130.32v28.4h-5.15V151l-6.75-10.85v18.55H228v-28.4H232l7.85,12.75V130.32Z" transform="translate(-13.76 -7.29)" fill="#fff"/><path id="G" d="M265.92,139.32v-3a1.53,1.53,0,0,0-1.5-1.6h-3a1.52,1.52,0,0,0-1.45,1.6v16.5a1.52,1.52,0,0,0,1.45,1.6h3a1.53,1.53,0,0,0,1.5-1.6v-4h-2.8v-4.15h7.95V154a5.25,5.25,0,0,1-5.25,5.25h-5.9a5.23,5.23,0,0,1-5.2-5.2v-19a5.24,5.24,0,0,1,5.2-5.25h5.9a5.25,5.25,0,0,1,5.25,5.25v4.25Z" transform="translate(-13.76 -7.29)" fill="#fff"/></g></g></g></svg>