<svg xmlns="http://www.w3.org/2000/svg" xmlns:xlink="http://www.w3.org/1999/xlink" viewBox="0 0 372.53 995.36"><defs><style>.a{isolation:isolate;}.b{fill:#a8ad00;}.c{fill:url(#a);}.d{fill:url(#b);}.e{fill:#5b595b;opacity:0.25;mix-blend-mode:multiply;}.f{fill:#fff;}</style><linearGradient id="a" x1="93.34" y1="995.27" x2="93.34" y2="144" gradientUnits="userSpaceOnUse"><stop offset="0.26" stop-color="#9aa2a8"/><stop offset="0.4" stop-color="#9fa7ad"/><stop offset="0.57" stop-color="#afb5ba"/><stop offset="0.76" stop-color="#c8cdcf"/><stop offset="0.96" stop-color="#ebedee"/><stop offset="1" stop-color="#f4f5f5"/></linearGradient><linearGradient id="b" x1="279.6" y1="995.36" x2="279.6" y2="144.62" gradientUnits="userSpaceOnUse"><stop offset="0" stop-color="#7b868c"/><stop offset="0.33" stop-color="#7d888e"/><stop offset="0.48" stop-color="#858f94"/><stop offset="0.6" stop-color="#929ba0"/><stop offset="0.7" stop-color="#a4acb0"/><stop offset="0.79" stop-color="#bcc1c4"/><stop offset="0.87" stop-color="#d9dcdd"/><stop offset="0.92" stop-color="#f2f3f3"/></linearGradient></defs><title>BLOXModules_Single_Billing</title><g class="a"><polygon class="b" points="372.53 144.62 186.67 0 0 144 186.67 287.71 372.53 144.62"/><polygon class="c" points="186.67 954.83 186.67 954.83 186.67 287.71 0 144 0 892.34 133.06 994.4 134.17 995.27 186.67 954.83"/><polygon class="d" points="186.67 287.71 186.67 954.83 239.3 995.36 372.53 892.34 372.53 144.62 186.67 287.71"/><polygon class="e" points="240.4 246.31 117.01 151.43 120.19 150.84 120.07 123.23 128.74 123.45 141.17 133.09 146.32 123.23 156.13 131.49 161.82 135.73 161.98 122.56 177.56 135.79 183.03 139.21 183.27 122.56 198.85 135.68 204.54 139.21 204.3 123.1 214.19 131.21 219 140.94 218.26 123.03 226.11 129.48 231.26 145.4 231.26 123.03 240.96 130.45 254.3 123.03 327.56 179.29 240.4 246.31"/><path class="f" d="M146.07,148.57v5.15a4.92,4.92,0,0,1-5,5h-10.3v-28.4h9.65a4.93,4.93,0,0,1,5.05,5v4.75a4.42,4.42,0,0,1-2.55,4.2A4.39,4.39,0,0,1,146.07,148.57Zm-10.15-13.9v7.65h3a1.48,1.48,0,0,0,1.45-1.55v-4.5a1.48,1.48,0,0,0-1.55-1.6Zm5,13.15a1.48,1.48,0,0,0-1.5-1.55h-3.5v8.1h3.45a1.48,1.48,0,0,0,1.55-1.6Z" transform="translate(-13.76 -7.29)"/><path class="f" d="M155,130.32h5.25v28.4H155Z" transform="translate(-13.76 -7.29)"/><path class="f" d="M183.72,153.87v4.85H170.27v-28.4h5.25v23.55Z" transform="translate(-13.76 -7.29)"/><path class="f" d="M204.92,153.87v4.85H191.47v-28.4h5.25v23.55Z" transform="translate(-13.76 -7.29)"/><path class="f" d="M212.72,130.32H218v28.4h-5.25Z" transform="translate(-13.76 -7.29)"/><path class="f" d="M245,130.32v28.4h-5.15V151l-6.75-10.85v18.55H228v-28.4H232l7.85,12.75V130.32Z" transform="translate(-13.76 -7.29)"/><path class="f" d="M265.92,139.32v-3a1.53,1.53,0,0,0-1.5-1.6h-3a1.52,1.52,0,0,0-1.45,1.6v16.5a1.52,1.52,0,0,0,1.45,1.6h3a1.53,1.53,0,0,0,1.5-1.6v-4h-2.8v-4.15h7.95V154a5.25,5.25,0,0,1-5.25,5.25h-5.9a5.23,5.23,0,0,1-5.2-5.2v-19a5.24,5.24,0,0,1,5.2-5.25h5.9a5.25,5.25,0,0,1,5.25,5.25v4.25Z" transform="translate(-13.76 -7.29)"/></g></svg>