<svg xmlns="http://www.w3.org/2000/svg" width="258" height="112" viewBox="0 0 258 112">
    <defs>
        <clipPath id="prefix__clip-path">
            <path id="prefix__Mask" d="M0 0H258V112H0z" transform="translate(26 7)" style="fill:#9164cc;opacity:0"/>
        </clipPath>
        <clipPath id="prefix__clip-path-2">
            <path id="prefix__Rectangle_3133" d="M0 0H35.863V20.579H0z" data-name="Rectangle 3133" style="fill:none"/>
        </clipPath>
        <style>
            .prefix__cls-6{fill:#fff}.prefix__cls-8{fill:#333}.prefix__cls-12{fill:#6f7271}.prefix__cls-14{fill:#ffc640}.prefix__cls-15{fill:#f18a00}.prefix__cls-16{fill:#79d2de}.prefix__cls-17{fill:#f23722}
        </style>
    </defs>
    <g id="prefix__Guest_Access_Image" data-name="Guest Access Image" transform="translate(-26 -7)">
        <g id="prefix__Image" transform="translate(115 23.265)">
            <path id="prefix__Path_11094" d="M4437.5 1223.868l32.707 25.2 129.533-.084v-8.484l-93.571-69.762-34.234 19.683z" data-name="Path 11094" transform="translate(-4431.707 -1153.294)" style="fill:rgba(91,89,91,.2)"/>
            <g id="prefix__ICON">
                <rect id="prefix__Rectangle_3126" width="80.25" height="56.616" data-name="Rectangle 3126" rx="11.728" transform="translate(0 15.672)" style="fill:#a46cf4"/>
                <rect id="prefix__Rectangle_3127" width="28.308" height="6.233" class="prefix__cls-6" data-name="Rectangle 3127" rx="3.117" transform="translate(25.646 19.004)"/>
                <g id="prefix__Clip" transform="translate(31.112)">
                    <path id="prefix__Path_11095" d="M4485.334 1143.559v-8.583a2.378 2.378 0 012.379-2.38h9.992a2.379 2.379 0 012.379 2.38v8.584z" data-name="Path 11095" transform="translate(-4483.938 -1132.597)" style="fill:#53575a"/>
                    <path id="prefix__Path_11096" d="M4500.084 1151.121v8.636a2.38 2.38 0 01-2.379 2.38h-9.992a2.379 2.379 0 01-2.379-2.38v-8.637z" class="prefix__cls-8" data-name="Path 11096" transform="translate(-4483.938 -1140.158)"/>
                    <rect id="prefix__Rectangle_3128" width="17.548" height="2.636" class="prefix__cls-8" data-name="Rectangle 3128" rx="1.318" transform="translate(0 9.673)"/>
                </g>
                <path id="prefix__Path_11097" d="M4517.836 1201.4l-23.416-17.281-9.172 11.421-.878 3.437.878 3.015-14.932-11.6-22.359 30.816 10.1 7.753h52.526c5.939 0 7.25-3.538 7.25-7.753z" data-name="Path 11097" transform="translate(-4437.571 -1156.715)" style="opacity:.75;fill:#755e92"/>
                <g id="prefix__Type_Bars" data-name="Type Bars" transform="translate(39.346 50.165)">
                    <g id="prefix__Group_1743" data-name="Group 1743">
                        <rect id="prefix__Rectangle_3129" width="35.061" height="2.996" class="prefix__cls-6" data-name="Rectangle 3129" rx="1.496"/>
                    </g>
                    <g id="prefix__Group_1744" data-name="Group 1744" transform="translate(0 5.552)">
                        <rect id="prefix__Rectangle_3130" width="35.061" height="2.996" class="prefix__cls-6" data-name="Rectangle 3130" rx="1.496"/>
                    </g>
                    <g id="prefix__Group_1745" data-name="Group 1745" transform="translate(0 11.104)">
                        <rect id="prefix__Rectangle_3131" width="35.061" height="2.996" class="prefix__cls-6" data-name="Rectangle 3131" rx="1.496"/>
                    </g>
                </g>
                <g id="prefix__PERSON" transform="translate(9.09 33.217)">
                    <rect id="prefix__Rectangle_3132" width="25.717" height="31.95" data-name="Rectangle 3132" rx="3.699" style="fill:#cfd2d3"/>
                    <path id="prefix__Path_11098" d="M4459.537 1224.729l-4.326-4.507 5.289-12.195-2.194-3.175 7.512-6.192 9.519 6.917.009 15.15a4.016 4.016 0 01-4.188 4z" data-name="Path 11098" transform="translate(-4449.621 -1192.779)" style="fill:#c7c8c9;opacity:.75"/>
                    <circle id="prefix__Ellipse_308" cx="4.87" cy="4.87" r="4.87" class="prefix__cls-12" data-name="Ellipse 308" transform="translate(7.504 4.025)"/>
                    <path id="prefix__Path_11099" d="M4462.021 1213.852a6.816 6.816 0 00-6.813 6.65v5.921h13.632v-5.753a6.818 6.818 0 00-6.819-6.818z" class="prefix__cls-12" data-name="Path 11099" transform="translate(-4449.618 -1198.98)"/>
                </g>
                <g id="prefix__Meter" transform="translate(38.914 25.068)">
                    <g id="prefix__Group_1747" data-name="Group 1747">
                        <g id="prefix__Group_1746" data-name="Group 1746">
                            <path id="prefix__Path_11100" d="M4526.05 1196.89l-.02-.013a11.606 11.606 0 00.7-2.847h.013l.544-.006 1.78-.261-.009-1.255-.015-1.339-1.784-.226h-.565q-.081-.547-.208-1.078a.168.168 0 01-.005-.024c-.018-.074-.039-.148-.059-.222-.023-.09-.048-.177-.072-.265a12.174 12.174 0 00-.434-1.234l.479-.291 1.415-1.14-1.284-2.234-1.657.72-.49.3a11.37 11.37 0 00-2.051-2.049l.274-.5.671-1.713-2.2-1.276-1.081 1.474-.279.507a11.035 11.035 0 00-2.775-.718l-.005-.57-.254-1.828-2.529.024-.219 1.833.006.584a10.933 10.933 0 00-2.753.8l-.282-.49-1.11-1.452-2.178 1.318.7 1.7.291.5a11.418 11.418 0 00-2 2.1l-.485-.28-1.67-.689-1.243 2.258 1.437 1.112.5.288a11.7 11.7 0 00-.373 1.138l-.065.25a12.061 12.061 0 00-.263 1.459h-.007l-.55.005-1.779.261.009 1.219.015 1.376 1.784.226H4504.485a11.694 11.694 0 00.776 2.825l-.022.014-.454.276-1.416 1.139 1.285 2.235 1.655-.72.46-.281.032-.018a11.529 11.529 0 002.049 2.047l-.021.038-.252.459-.67 1.714 2.2 1.275 1.083-1.473.253-.464.026-.042a11.011 11.011 0 002.773.719V1204.655l.255 1.829 2.527-.027.22-1.832V1204.04a11 11 0 002.177-.563c.2-.074.387-.151.573-.234l.024.043.261.447 1.106 1.453 1.37-.829.809-.49-.7-1.7-.269-.468-.021-.038a11.449 11.449 0 001.18-1.116 11.132 11.132 0 00.815-.989l.03.019.454.263 1.668.688 1.243-2.259-1.435-1.11zm-3.517 2.5a9.663 9.663 0 01-2.482 1.941 9.327 9.327 0 01-4.468 1.136 9.688 9.688 0 01-9.562-9.714v-.1a9.565 9.565 0 1119.125-.14c0 .047.005.094.005.14a9.916 9.916 0 01-2.618 6.733z" data-name="Path 11100" transform="translate(-4498.583 -1176.527)"/>
                        </g>
                    </g>
                    <g id="prefix__Group_1760" data-name="Group 1760" transform="translate(7.246 6.295)">
                        <path id="prefix__Path_11101" d="M4526.109 1200.844a9.377 9.377 0 001.683-5.015 9.524 9.524 0 10-19.04-.489 9.372 9.372 0 001.552 5.3z" data-name="Path 11101" transform="translate(-4508.544 -1185.734)"/>
                        <g id="prefix__Group_1757" data-name="Group 1757" transform="translate(2.08 2.022)">
                            <g id="prefix__Group_1748" data-name="Group 1748" transform="translate(3.643)">
                                <path id="prefix__Path_11102" d="M4518.676 1191.2l-.6-1.042.26-.147a7.69 7.69 0 013.9-1h.3l-.016 1.2-.6-.008.008-.6a7.083 7.083 0 00-3.029.778l.3.514z" class="prefix__cls-14" data-name="Path 11102" transform="translate(-4518.073 -1189.007)"/>
                            </g>
                            <g id="prefix__Group_1749" data-name="Group 1749" transform="translate(.792 .855)">
                                <path id="prefix__Path_11103" d="M4514.314 1194.459l-1.06-.571.145-.264a7.7 7.7 0 012.963-3.022l.265-.151.6 1.039-.518.3-.3-.519a7.1 7.1 0 00-2.335 2.377l.523.282z" class="prefix__cls-15" data-name="Path 11103" transform="translate(-4513.254 -1190.452)"/>
                            </g>
                            <g id="prefix__Group_1750" data-name="Group 1750" transform="translate(0 3.765)">
                                <path id="prefix__Path_11104" d="M4513.119 1199.518l-1.2-.016v-.3a7.717 7.717 0 01.93-3.571l.142-.262 1.059.569-.284.527-.527-.284a7.082 7.082 0 00-.71 2.729l.594.008z" class="prefix__cls-15" data-name="Path 11104" transform="translate(-4511.916 -1195.369)"/>
                            </g>
                            <g id="prefix__Group_1751" data-name="Group 1751" transform="translate(7.795 .001)">
                                <path id="prefix__Path_11105" d="M4528.415 1191.167l-.527-.284.284-.528a7.12 7.12 0 00-3.082-.748l.007-.6a7.7 7.7 0 013.625.961l.259.143z" class="prefix__cls-14" data-name="Path 11105" transform="translate(-4525.09 -1189.008)"/>
                            </g>
                            <g id="prefix__Group_1752" data-name="Group 1752" transform="translate(10.594 .815)">
                                <path id="prefix__Path_11106" d="M4532.485 1194.046l-.313-.511.567-.347a6.827 6.827 0 00-2.112-1.982l-.283.523-.524-.285.569-1.06.266.147a7.492 7.492 0 012.759 2.591l.163.256z" class="prefix__cls-14" data-name="Path 11106" transform="translate(-4529.819 -1190.384)"/>
                            </g>
                            <g id="prefix__Group_1753" data-name="Group 1753" transform="translate(13.554 4.393)">
                                <path id="prefix__Path_11107" d="M4535.655 1200.522l.009-.6.6.009a6.993 6.993 0 00-.6-2.662l-.539.312-.3-.517 1.1-.635.14.285a7.611 7.611 0 01.8 3.523v.3z" class="prefix__cls-16" data-name="Path 11107" transform="translate(-4534.818 -1196.43)"/>
                            </g>
                            <g id="prefix__Group_1754" data-name="Group 1754" transform="translate(.003 7.3)">
                                <path id="prefix__Path_11108" d="M4513.136 1205.9l-.149-.256a7.694 7.694 0 01-1.062-4.009v-.3l1.2.015-.009.6-.6-.008a7.069 7.069 0 00.832 3.138l.519-.3.3.518z" class="prefix__cls-17" data-name="Path 11108" transform="translate(-4511.923 -1201.341)"/>
                            </g>
                            <g id="prefix__Group_1755" data-name="Group 1755" transform="translate(13.487 8.194)">
                                <path id="prefix__Path_11109" d="M4535.764 1206.653l-1.059-.569.285-.527.525.283a7.046 7.046 0 00.7-2.987l.6.008a7.624 7.624 0 01-.908 3.529z" class="prefix__cls-16" data-name="Path 11109" transform="translate(-4534.705 -1202.852)"/>
                            </g>
                            <g id="prefix__Group_1756" data-name="Group 1756" transform="translate(13.487 10.898)">
                                <path id="prefix__Rectangle_3134" d="M0 0H0.599V0.902H0z" data-name="Rectangle 3134" transform="rotate(-61.702 .441 .264)" style="fill:#21d8de"/>
                            </g>
                        </g>
                        <g id="prefix__Group_1759" data-name="Group 1759" transform="translate(9.351 4.861)">
                            <g id="prefix__Group_1758" data-name="Group 1758">
                                <path id="prefix__Path_11110" d="M4524.969 1193.813l-.064 4.83z" class="prefix__cls-6" data-name="Path 11110" transform="translate(-4524.491 -1193.808)"/>
                                <path id="prefix__Rectangle_3135" d="M0 0H4.831V0.828H0z" class="prefix__cls-17" data-name="Rectangle 3135" transform="rotate(-89.25 2.447 2.415)"/>
                            </g>
                        </g>
                        <path id="prefix__Path_11111" d="M4510.42 1200.5a9.136 9.136 0 01-1.6-5.4 9.316 9.316 0 0118.629.344 9.138 9.138 0 01-1.74 5.254l.5.006a9.548 9.548 0 001.655-5.486 9.731 9.731 0 00-19.46-.023 9.547 9.547 0 001.517 5.3z" data-name="Path 11111" transform="translate(-4508.402 -1185.591)" style="fill:#c8c8c8"/>
                    </g>
                    <path id="prefix__Rectangle_3136" d="M0 0H34.551V2.36H0z" data-name="Rectangle 3136" transform="translate(.559 20.58)"/>
                </g>
            </g>
        </g>
    </g>
</svg>
