<svg xmlns="http://www.w3.org/2000/svg" id="Home-storage-module-2019" width="372.53" height="995.36" viewBox="0 0 372.53 995.36">
    <defs>
        <style>
            .cls-1{fill:#008388}.cls-2{fill:url(#linear-gradient)}.cls-3{fill:url(#linear-gradient-2)}.cls-4{fill:#5b595b;opacity:.35}.cls-5{fill:#fff}
        </style>
        <linearGradient id="linear-gradient" x1=".5" x2=".5" y1="1" gradientUnits="objectBoundingBox">
            <stop offset=".26" stop-color="#9aa2a8"/>
            <stop offset=".4" stop-color="#9fa7ad"/>
            <stop offset=".57" stop-color="#afb5ba"/>
            <stop offset=".76" stop-color="#c8cdcf"/>
            <stop offset=".96" stop-color="#ebedee"/>
            <stop offset="1" stop-color="#f4f5f5"/>
        </linearGradient>
        <linearGradient id="linear-gradient-2" x1=".5" x2=".5" y1="1" gradientUnits="objectBoundingBox">
            <stop offset="0" stop-color="#7b868c"/>
            <stop offset=".33" stop-color="#7d888e"/>
            <stop offset=".48" stop-color="#858f94"/>
            <stop offset=".6" stop-color="#929ba0"/>
            <stop offset=".7" stop-color="#a4acb0"/>
            <stop offset=".79" stop-color="#bcc1c4"/>
            <stop offset=".87" stop-color="#d9dcdd"/>
            <stop offset=".92" stop-color="#f2f3f3"/>
        </linearGradient>
    </defs>
    <g id="Layer_1" data-name="Layer 1">
        <g id="SUPPORT_MODULE" data-name="SUPPORT MODULE">
            <path id="TOP" d="M372.53 144.62L186.67 0 0 144l186.67 143.71z" class="cls-1"/>
            <g id="LEFT_SIDE" data-name="LEFT SIDE">
                <path id="Path_6798" d="M186.67 954.83V287.71L0 144v748.34L133.06 994.4l1.11.87z" class="cls-2" data-name="Path 6798"/>
            </g>
            <g id="RIGHT_SIDE" data-name="RIGHT SIDE">
                <path id="Path_6799" d="M186.67 287.71v667.12l52.63 40.53 133.23-103.02V144.62z" class="cls-3" data-name="Path 6799"/>
            </g>
            <g id="Support">
                <path id="Type_Shadow" d="M234.08 251.32l-125.25-96.67h9.31l-.34-12.4-9.35-4.73v-7.55l10.99-3.03 13.99 10.72 4.51-10.72 6.01-.57 7.52 5.66 14.48-5.32 13 10 3.14-9.01 7.86-.99 14.98 11.65 7.84-12.06 14.82 11.3 7.33-9.16 7.13-1.32 10.6 8.08 5.32-6.68 8.14-2.11 65 50.07z" class="cls-4" data-name="Type Shadow"/>
                <g id="Support-_Outlined" data-name="Support- Outlined">
                    <path id="Path_6800" d="M105.37 149.9v-4h5.2v2.75a1.5 1.5 0 0 0 1.4 1.65h2.8a1.54 1.54 0 0 0 1.5-1.65v-3.8a1.41 1.41 0 0 0-.9-1.31l-6.85-2.5a4.32 4.32 0 0 1-3-4.15V131a5.25 5.25 0 0 1 5.25-5.25h5.5a5.23 5.23 0 0 1 5.2 5.25v3.55h-5.2v-2.3a1.5 1.5 0 0 0-1.4-1.65h-2.6a1.54 1.54 0 0 0-1.5 1.65v3.4a1.35 1.35 0 0 0 .9 1.3l6.85 2.51a4.31 4.31 0 0 1 3.06 4.15v6.25a5.26 5.26 0 0 1-5.26 5.25h-5.7a5.24 5.24 0 0 1-5.25-5.21z" class="cls-5" data-name="Path 6800"/>
                    <path id="Path_6801" d="M144.12 131.14h-5.5v23.56h-5.2v-23.56h-5.5v-4.85h16.2z" class="cls-5" data-name="Path 6801"/>
                    <path id="Path_6802" d="M151.42 150v-18.91a5.25 5.25 0 0 1 5.25-5.25h6.75a5.23 5.23 0 0 1 5.3 5.25V150a5.22 5.22 0 0 1-5.3 5.2h-6.75a5.24 5.24 0 0 1-5.25-5.2zm10.55.4a1.5 1.5 0 0 0 1.5-1.6v-16.56a1.5 1.5 0 0 0-1.5-1.6h-3.8a1.53 1.53 0 0 0-1.5 1.6v16.51a1.53 1.53 0 0 0 1.5 1.6z" class="cls-5" data-name="Path 6802"/>
                    <path id="Path_6803" d="M185.12 144.29h-1.55v10.41h-5.15v-28.41H188a5.22 5.22 0 0 1 5.25 5.25v7.55a5.35 5.35 0 0 1-2.9 4.66l4.45 10.95h-5.85zm-1.55-4.2h3a1.56 1.56 0 0 0 1.5-1.6v-6.3a1.56 1.56 0 0 0-1.5-1.6h-3z" class="cls-5" data-name="Path 6803"/>
                    <path id="Path_6804" d="M213.22 149.15h-6.3l-1.1 5.55h-5.3l7-28.51h5.15l7.05 28.51h-5.45zm-.9-4.3l-2.25-11.26-2.25 11.26z" class="cls-5" data-name="Path 6804"/>
                    <path id="Path_6805" d="M238.62 135.29v-3a1.53 1.53 0 0 0-1.5-1.6h-3a1.52 1.52 0 0 0-1.45 1.6v16.51a1.52 1.52 0 0 0 1.45 1.6h3a1.53 1.53 0 0 0 1.5-1.6v-4h-2.8v-4.15h8V150a5.25 5.25 0 0 1-5.25 5.25h-5.9a5.23 5.23 0 0 1-5.2-5.2V131a5.24 5.24 0 0 1 5.2-5.25h5.9a5.25 5.25 0 0 1 5.25 5.25v4.25z" class="cls-5" data-name="Path 6805"/>
                    <path id="Path_6806" d="M266.47 149.9v4.8h-13.8v-28.41h13.55v4.8h-8.3v7.1H264v4.41h-6.05v7.3z" class="cls-5" data-name="Path 6806"/>
                </g>
            </g>
        </g>
    </g>
</svg>
