<svg xmlns="http://www.w3.org/2000/svg" width="256" height="112" viewBox="0 0 256 112">
    <defs>
        <clipPath id="prefix__clip-path">
            <path id="prefix__Mask" d="M0 0H256V112H0z" transform="translate(26.634 7.86)" style="fill:#9164cc;opacity:0"/>
        </clipPath>
        <clipPath id="prefix__clip-path-2">
            <path id="prefix__Path_2390" d="M18.788-.03A18.787 18.787 0 110 18.773 18.84 18.84 0 0118.788-.03z" data-name="Path 2390" transform="translate(0 .03)" style="fill:none"/>
        </clipPath>
        <style>
            .prefix__cls-5{fill:#fff}.prefix__cls-9{fill:#c2d500}.prefix__cls-11{fill:#f23722}.prefix__cls-13{fill:#fbaf31}.prefix__cls-15{fill:#6f7271}
        </style>
    </defs>
    <g id="prefix__Remote_Hands_Image" data-name="Remote Hands Image" transform="translate(-26.634 -7.86)">
        <g id="prefix__icon-remote-hands-large" transform="translate(118.343 27.983)">
            <path id="prefix__Path_2309" d="M3528.915 2268.96l-10.59-8.288-5.623-2.94-1.066 3.344v1.609l-10.191-8.022-5.873 1.229v3.171l.015 1.508a32.719 32.719 0 00-6.612 2.141l-5.151-4.818-4.938 3.236 1.769 4.17.858 1.514a28.881 28.881 0 00-5.209 5.334l-1.35-.634-4.416-1.774-3.288 5.823 5.105 3.606c-.207.606-1.679 6.06-1.849 7.34l-1.477.016-4.706.67v5.587l9.266 8.345-2.869 8.434 8.674 7.942-.349.243 31.884 28.455h117.541v-3.9l-24.031-17.357z" data-name="Path 2309" transform="translate(-3464.179 -2254.324)" style="opacity:.5;fill:rgba(91,89,91,.8)"/>
            <path id="prefix__Path_2310" d="M3525.637 2300l-.056-.031a28.436 28.436 0 001.791-7.105h.037l1.39-.016 4.56-.652-.022-3.131-.04-3.341-4.568-.565-1.446.013h-.014a28.629 28.629 0 00-.53-2.691.318.318 0 01-.012-.06 50.3 50.3 0 00-.151-.555c-.059-.224-.125-.444-.187-.662a30.167 30.167 0 00-1.107-3.079l1.221-.726 3.624-2.843-3.288-5.576-4.242 1.8-1.254.749a28.708 28.708 0 00-5.25-5.113l.7-1.239 1.716-4.277-5.636-3.184-2.771 3.676-.714 1.266a28.741 28.741 0 00-7.1-1.792l-.01-1.424-.653-4.562-6.47.061-.563 4.572.017 1.458a28.475 28.475 0 00-7.049 1.992l-.723-1.223-2.841-3.625-5.576 3.288 1.8 4.241.744 1.26a28.957 28.957 0 00-5.108 5.251l-1.239-.7-4.274-1.717-3.182 5.635 3.678 2.774 1.263.717a28.234 28.234 0 00-.947 2.838c-.059.207-.118.417-.172.624a29.607 29.607 0 00-.672 3.641h-.016l-1.413.015-4.555.649.027 3.042.035 3.433 4.568.563 1.417-.012h.041a28.657 28.657 0 001.988 7.049l-.06.036-1.159.689-3.626 2.843 3.289 5.578 4.237-1.795 1.176-.7.084-.046a28.783 28.783 0 005.245 5.109l-.052.1-.651 1.145-1.712 4.276 5.633 3.183 2.776-3.676.649-1.159.063-.107a28.8 28.8 0 007.1 1.8v.126l.011 1.3.653 4.565 6.469-.066.562-4.573-.009-1.323v-.136a28.793 28.793 0 005.577-1.4c.5-.186.99-.377 1.468-.586l.064.107.661 1.117 2.839 3.624 3.5-2.069 2.069-1.221-1.8-4.237-.687-1.167-.055-.1a28.984 28.984 0 003.022-2.784c.241-.257.484-.517.715-.784a27.33 27.33 0 001.369-1.683l.078.046 1.164.657 4.271 1.717 3.184-5.638-3.675-2.771zm-9 6.229a24.6 24.6 0 01-6.358 4.844 24.475 24.475 0 01-35.908-21.4c0-.086-.009-.17-.009-.257a24.478 24.478 0 0148.953-.35c0 .117.011.233.011.35a24.406 24.406 0 01-6.692 16.816z" data-name="Path 2310" transform="translate(-3464.323 -2254.547)"/>
            <g id="prefix__Group_709" data-name="Group 709" transform="translate(12.541 12.837)">
                <g id="prefix__Group_708" data-name="Group 708">
                    <g id="prefix__Group_703" data-name="Group 703" transform="translate(1.103 .68)">
                        <path id="prefix__Path_2311" d="M3523.72 2292.252a21.472 21.472 0 10-21.472 21.483 21.478 21.478 0 0021.472-21.483z" class="prefix__cls-5" data-name="Path 2311" transform="translate(-3480.776 -2270.771)"/>
                        <path id="prefix__Path_2312" d="M3502.12 2271.922a20.519 20.519 0 00-20.407 22.615 20.891 20.891 0 0140.789.275 20.524 20.524 0 00-20.381-22.89z" data-name="Path 2312" transform="translate(-3480.918 -2270.967)" style="fill:#cfd2d3;opacity:.5"/>
                    </g>
                    <g id="prefix__Group_704" data-name="Group 704" transform="translate(34.791 33.773)">
                        <path id="prefix__Rectangle_660" d="M0 0H5.463V14.563H0z" data-name="Rectangle 660" transform="rotate(-45.036 4.661 1.932)" style="fill:#cfd2d3"/>
                    </g>
                    <g id="prefix__Group_705" data-name="Group 705" transform="translate(34.643 33.625)">
                        <path id="prefix__Path_2313" d="M3527.991 2313.378l1.058 8.785-7.827-7.815 3.865-3.87z" data-name="Path 2313" transform="translate(-3521.222 -2310.478)" style="fill:#a2a9ad"/>
                    </g>
                    <g id="prefix__Group_706" data-name="Group 706" transform="translate(2.828 2.797)">
                        <path id="prefix__Path_2314" d="M3516.19 2306.675a19.507 19.507 0 01-24.553 2.5 19.676 19.676 0 01-5.564-5.567 19.54 19.54 0 010-21.5 19.664 19.664 0 015.564-5.569 19.591 19.591 0 013.4-1.788 19.542 19.542 0 0114.7 0 19.477 19.477 0 013.4 1.788 19.771 19.771 0 013.06 2.5 19.549 19.549 0 014.292 6.465 19.625 19.625 0 010 14.7 19.518 19.518 0 01-4.292 6.464zm-26.5-26.518a18.044 18.044 0 00-2.3 2.817 17.98 17.98 0 00-2.629 6.452 18.121 18.121 0 000 6.866 18 18 0 007.749 11.573 17.865 17.865 0 006.448 2.631 18.072 18.072 0 006.861 0 17.894 17.894 0 009.265-4.933 18.031 18.031 0 002.3-2.819 17.685 17.685 0 001.641-3.123 17.966 17.966 0 00.989-3.329 17.971 17.971 0 00-.989-10.194 17.741 17.741 0 00-1.641-3.124 18.217 18.217 0 00-5.12-5.122 17.879 17.879 0 00-6.447-2.63 18.1 18.1 0 00-6.861 0 17.9 17.9 0 00-6.448 2.63 18.064 18.064 0 00-2.822 2.305z" class="prefix__cls-5" data-name="Path 2314" transform="translate(-3482.856 -2273.321)"/>
                    </g>
                    <path id="prefix__Path_2315" d="M3513.851 2273.6a21.991 21.991 0 00-3.86-2.03 22.144 22.144 0 00-24.037 4.881l-.015.013a22.223 22.223 0 00-6.081 19.952 22.07 22.07 0 003.256 7.979 22.226 22.226 0 0022.779 9.571 22.138 22.138 0 0011.453-6.1l.012-.01a22.583 22.583 0 002.841-3.488 22.219 22.219 0 003.649-12.225 22.344 22.344 0 00-.412-4.242 22.164 22.164 0 00-3.254-7.978 22.424 22.424 0 00-6.331-6.326zm6.537 17.293c.017.224.034.449.043.673.005.126.005.251.008.378a18.7 18.7 0 01-34.594 10.206c-.124-.2-.241-.408-.359-.614-.278-.49-.534-1-.77-1.517-.049-.114-.105-.226-.155-.34a19.338 19.338 0 01-.934-2.752 18.658 18.658 0 012.086-14.263c.086-.146.178-.288.268-.432a18.691 18.691 0 0133.881 5.426 18.9 18.9 0 01.5 2.862c.011.128.016.252.026.38z" class="prefix__cls-9" data-name="Path 2315" transform="translate(-3479.448 -2269.95)"/>
                    <g id="prefix__Group_707" data-name="Group 707" transform="translate(43.812 43.036)">
                        <path id="prefix__Path_2316" d="M3539.1 2321.819l-3.126 3.13 23.937 23.815 1.372-1.372a2.506 2.506 0 000-3.542z" data-name="Path 2316" transform="translate(-3532.91 -2321.819)" style="fill:#b5d334"/>
                        <path id="prefix__Path_2317" d="M3532.279 2328.662l22.183 22.032a2.5 2.5 0 003.538 0l1.279-1.284-23.936-23.816z" class="prefix__cls-11" data-name="Path 2317" transform="translate(-3532.279 -2322.462)"/>
                    </g>
                </g>
            </g>
            <g id="prefix__Group_727" data-name="Group 727" transform="translate(15.984 16.423)">
                <g id="prefix__Mask_Group_2" data-name="Mask Group 2">
                    <g id="prefix__Group_725" data-name="Group 725" transform="translate(-11.523 12.162)">
                        <g id="prefix__Group_720" data-name="Group 720">
                            <g id="prefix__Group_719" data-name="Group 719" transform="translate(0 1.194)">
                                <g id="prefix__Group_714" data-name="Group 714">
                                    <g id="prefix__Group_711" data-name="Group 711">
                                        <path id="prefix__Path_2318" d="M3472.916 2291.979a1.607 1.607 0 11-1.607-1.609 1.609 1.609 0 011.607 1.609z" class="prefix__cls-9" data-name="Path 2318" transform="translate(-3469.702 -2290.369)"/>
                                        <path id="prefix__Path_2319" d="M3479.7 2291.979a1.606 1.606 0 11-1.606-1.609 1.608 1.608 0 011.606 1.609z" class="prefix__cls-9" data-name="Path 2319" transform="translate(-3470.86 -2290.369)"/>
                                        <path id="prefix__Path_2320" d="M3486.48 2291.979a1.607 1.607 0 11-1.608-1.609 1.608 1.608 0 011.608 1.609z" class="prefix__cls-13" data-name="Path 2320" transform="translate(-3472.019 -2290.369)"/>
                                    </g>
                                    <g id="prefix__Group_712" data-name="Group 712" transform="translate(16.821)">
                                        <path id="prefix__Path_2321" d="M3493.2 2291.979a1.606 1.606 0 11-1.606-1.609 1.608 1.608 0 011.606 1.609z" class="prefix__cls-13" data-name="Path 2321" transform="translate(-3489.988 -2290.369)"/>
                                        <path id="prefix__Path_2322" d="M3499.982 2291.979a1.607 1.607 0 11-1.608-1.609 1.609 1.609 0 011.608 1.609z" class="prefix__cls-13" data-name="Path 2322" transform="translate(-3491.145 -2290.369)"/>
                                        <path id="prefix__Path_2323" d="M3506.765 2291.979a1.607 1.607 0 11-1.607-1.609 1.61 1.61 0 011.607 1.609z" class="prefix__cls-11" data-name="Path 2323" transform="translate(-3492.303 -2290.369)"/>
                                    </g>
                                    <g id="prefix__Group_713" data-name="Group 713" transform="translate(33.479)">
                                        <path id="prefix__Path_2324" d="M3513.288 2291.979a1.607 1.607 0 11-1.607-1.609 1.609 1.609 0 011.607 1.609z" class="prefix__cls-13" data-name="Path 2324" transform="translate(-3510.075 -2290.369)"/>
                                        <path id="prefix__Path_2325" d="M3520.071 2291.979a1.607 1.607 0 11-1.607-1.609 1.608 1.608 0 011.607 1.609z" class="prefix__cls-9" data-name="Path 2325" transform="translate(-3511.234 -2290.369)"/>
                                    </g>
                                </g>
                                <g id="prefix__Group_718" data-name="Group 718" transform="translate(0 5.645)">
                                    <g id="prefix__Group_715" data-name="Group 715">
                                        <path id="prefix__Path_2326" d="M3472.916 2298.781a1.607 1.607 0 11-1.607-1.609 1.608 1.608 0 011.607 1.609z" class="prefix__cls-9" data-name="Path 2326" transform="translate(-3469.702 -2297.172)"/>
                                        <path id="prefix__Path_2327" d="M3479.7 2298.781a1.606 1.606 0 11-1.606-1.609 1.607 1.607 0 011.606 1.609z" class="prefix__cls-9" data-name="Path 2327" transform="translate(-3470.86 -2297.172)"/>
                                        <path id="prefix__Path_2328" d="M3486.48 2298.781a1.607 1.607 0 11-1.608-1.609 1.608 1.608 0 011.608 1.609z" class="prefix__cls-13" data-name="Path 2328" transform="translate(-3472.019 -2297.172)"/>
                                    </g>
                                    <g id="prefix__Group_716" data-name="Group 716" transform="translate(16.821)">
                                        <path id="prefix__Path_2329" d="M3493.2 2298.781a1.606 1.606 0 11-1.606-1.609 1.607 1.607 0 011.606 1.609z" class="prefix__cls-13" data-name="Path 2329" transform="translate(-3489.988 -2297.172)"/>
                                        <path id="prefix__Path_2330" d="M3499.982 2298.781a1.607 1.607 0 11-1.608-1.609 1.608 1.608 0 011.608 1.609z" class="prefix__cls-13" data-name="Path 2330" transform="translate(-3491.145 -2297.172)"/>
                                        <path id="prefix__Path_2331" d="M3506.765 2298.781a1.607 1.607 0 11-1.607-1.609 1.61 1.61 0 011.607 1.609z" class="prefix__cls-11" data-name="Path 2331" transform="translate(-3492.303 -2297.172)"/>
                                    </g>
                                    <g id="prefix__Group_717" data-name="Group 717" transform="translate(33.479)">
                                        <path id="prefix__Path_2332" d="M3513.288 2298.781a1.607 1.607 0 11-1.607-1.609 1.608 1.608 0 011.607 1.609z" class="prefix__cls-13" data-name="Path 2332" transform="translate(-3510.075 -2297.172)"/>
                                        <path id="prefix__Path_2333" d="M3520.071 2298.781a1.607 1.607 0 11-1.607-1.609 1.608 1.608 0 011.607 1.609z" class="prefix__cls-9" data-name="Path 2333" transform="translate(-3511.234 -2297.172)"/>
                                    </g>
                                </g>
                            </g>
                            <rect id="prefix__Rectangle_661" width="3.309" height="10.841" data-name="Rectangle 661" rx="1.655" transform="translate(45.771)" style="fill:#53575a"/>
                            <rect id="prefix__Rectangle_662" width="3.309" height="10.841" data-name="Rectangle 662" rx="1.655" transform="translate(51.533)"/>
                        </g>
                        <g id="prefix__Group_724" data-name="Group 724" transform="translate(19.549 13.594)">
                            <g id="prefix__Group_721" data-name="Group 721" transform="translate(1.46)">
                                <path id="prefix__Path_2334" d="M3496.877 2306.234a.92.92 0 11-.92-.919.921.921 0 01.92.919z" class="prefix__cls-15" data-name="Path 2334" transform="translate(-3495.038 -2305.315)"/>
                                <path id="prefix__Path_2335" d="M3500.648 2306.234a.92.92 0 11-.922-.919.922.922 0 01.922.919z" class="prefix__cls-15" data-name="Path 2335" transform="translate(-3495.681 -2305.315)"/>
                                <path id="prefix__Path_2336" d="M3504.415 2306.234a.919.919 0 11-.919-.919.919.919 0 01.919.919z" class="prefix__cls-15" data-name="Path 2336" transform="translate(-3496.325 -2305.315)"/>
                                <path id="prefix__Path_2337" d="M3508.184 2306.234a.92.92 0 11-.92-.919.921.921 0 01.92.919z" class="prefix__cls-15" data-name="Path 2337" transform="translate(-3496.968 -2305.315)"/>
                                <path id="prefix__Path_2338" d="M3511.953 2306.234a.919.919 0 11-.918-.919.92.92 0 01.918.919z" class="prefix__cls-15" data-name="Path 2338" transform="translate(-3497.612 -2305.315)"/>
                                <path id="prefix__Path_2339" d="M3515.722 2306.234a.919.919 0 11-.92-.919.921.921 0 01.92.919z" class="prefix__cls-15" data-name="Path 2339" transform="translate(-3498.256 -2305.315)"/>
                            </g>
                            <g id="prefix__Group_722" data-name="Group 722" transform="translate(1.46 4.597)">
                                <path id="prefix__Path_2340" d="M3496.877 2311.775a.92.92 0 11-.92-.92.919.919 0 01.92.92z" class="prefix__cls-15" data-name="Path 2340" transform="translate(-3495.038 -2310.855)"/>
                                <path id="prefix__Path_2341" d="M3500.648 2311.775a.92.92 0 11-.922-.92.921.921 0 01.922.92z" class="prefix__cls-15" data-name="Path 2341" transform="translate(-3495.681 -2310.855)"/>
                                <path id="prefix__Path_2342" d="M3504.415 2311.775a.919.919 0 11-.919-.92.918.918 0 01.919.92z" class="prefix__cls-15" data-name="Path 2342" transform="translate(-3496.325 -2310.855)"/>
                                <path id="prefix__Path_2343" d="M3508.184 2311.775a.92.92 0 11-.92-.92.92.92 0 01.92.92z" class="prefix__cls-15" data-name="Path 2343" transform="translate(-3496.968 -2310.855)"/>
                                <path id="prefix__Path_2344" d="M3511.953 2311.775a.919.919 0 11-.918-.92.919.919 0 01.918.92z" class="prefix__cls-15" data-name="Path 2344" transform="translate(-3497.612 -2310.855)"/>
                                <path id="prefix__Path_2345" d="M3515.722 2311.775a.919.919 0 11-.92-.92.92.92 0 01.92.92z" class="prefix__cls-15" data-name="Path 2345" transform="translate(-3498.256 -2310.855)"/>
                            </g>
                            <g id="prefix__Group_723" data-name="Group 723" transform="translate(0 2.297)">
                                <path id="prefix__Path_2346" d="M3495.115 2309a.919.919 0 11-.92-.921.921.921 0 01.92.921z" class="prefix__cls-15" data-name="Path 2346" transform="translate(-3493.276 -2308.083)"/>
                                <path id="prefix__Path_2347" d="M3498.842 2309a.919.919 0 11-.918-.921.919.919 0 01.918.921z" class="prefix__cls-15" data-name="Path 2347" transform="translate(-3493.913 -2308.083)"/>
                                <path id="prefix__Path_2348" d="M3502.571 2309a.919.919 0 11-.92-.921.92.92 0 01.92.921z" class="prefix__cls-15" data-name="Path 2348" transform="translate(-3494.549 -2308.083)"/>
                                <path id="prefix__Path_2349" d="M3506.3 2309a.921.921 0 11-.923-.921.921.921 0 01.923.921z" class="prefix__cls-15" data-name="Path 2349" transform="translate(-3495.186 -2308.083)"/>
                                <path id="prefix__Path_2350" d="M3510.027 2309a.919.919 0 11-.92-.921.919.919 0 01.92.921z" class="prefix__cls-15" data-name="Path 2350" transform="translate(-3495.822 -2308.083)"/>
                                <path id="prefix__Path_2351" d="M3513.755 2309a.919.919 0 11-.919-.921.919.919 0 01.919.921z" class="prefix__cls-15" data-name="Path 2351" transform="translate(-3496.458 -2308.083)"/>
                                <path id="prefix__Path_2352" d="M3517.486 2309.005a.92.92 0 11-.921-.918.92.92 0 01.921.918z" class="prefix__cls-15" data-name="Path 2352" transform="translate(-3497.095 -2308.084)"/>
                            </g>
                        </g>
                    </g>
                </g>
            </g>
        </g>
    </g>
</svg>
